<svg width="20" height="20" viewBox="0 0 20 20" fill="none" xmlns="http://www.w3.org/2000/svg">
<path d="M3.33301 4.16667H15.833C16.0867 4.16655 16.337 4.22437 16.565 4.33568C16.793 4.447 16.9926 4.60888 17.1485 4.80901C17.3044 5.00914 17.4127 5.24224 17.4649 5.49052C17.5171 5.7388 17.5118 5.99574 17.4496 6.24171L16.6163 11.2417C16.5254 11.6015 16.3169 11.9207 16.024 12.1486C15.7312 12.3765 15.3708 12.5002 14.9997 12.5H4.99967C4.55765 12.5 4.13365 12.3244 3.82109 12.0119C3.50853 11.6993 3.33301 11.2754 3.33301 10.8333V4.16667ZM3.33301 4.16667C3.33301 3.72464 3.15729 3.30074 2.84473 2.98818C2.53217 2.67562 2.10837 2.5 1.66634 2.5H0.833008" stroke="#282723" stroke-width="0.833333" stroke-linejoin="round"/>
<path d="M14.1667 18.3416C15.0871 18.3416 15.8333 17.5954 15.8333 16.675C15.8333 15.7545 15.0871 15.0083 14.1667 15.0083C13.2462 15.0083 12.5 15.7545 12.5 16.675C12.5 17.5954 13.2462 18.3416 14.1667 18.3416Z" stroke="#282723" stroke-width="0.833333" stroke-miterlimit="10"/>
<path d="M5.83268 18.3416C6.75316 18.3416 7.49935 17.5954 7.49935 16.675C7.49935 15.7545 6.75316 15.0083 5.83268 15.0083C4.91221 15.0083 4.16602 15.7545 4.16602 16.675C4.16602 17.5954 4.91221 18.3416 5.83268 18.3416Z" stroke="#282723" stroke-width="0.833333" stroke-miterlimit="10"/>
<circle cx="17" cy="4" r="3" fill="#282723"/>
</svg>
