<svg width="20" height="20" viewBox="0 0 20 20" fill="none" xmlns="http://www.w3.org/2000/svg">
<path d="M3.33325 4.16667H15.8333C16.087 4.16655 16.3373 4.22437 16.5653 4.33568C16.7932 4.447 16.9928 4.60888 17.1488 4.80901C17.3047 5.00914 17.4129 5.24224 17.4651 5.49052C17.5173 5.7388 17.512 5.99574 17.4499 6.24171L16.6165 11.2417C16.5256 11.6015 16.3171 11.9207 16.0243 12.1486C15.7314 12.3765 15.371 12.5002 14.9999 12.5H4.99992C4.55789 12.5 4.13389 12.3244 3.82133 12.0119C3.50877 11.6993 3.33325 11.2754 3.33325 10.8333V4.16667ZM3.33325 4.16667C3.33325 3.72464 3.15753 3.30074 2.84497 2.98818C2.53241 2.67562 2.10861 2.5 1.66659 2.5H0.833252" stroke="white" stroke-width="0.833333" stroke-linejoin="round"/>
<path d="M14.1667 18.3416C15.0871 18.3416 15.8333 17.5954 15.8333 16.675C15.8333 15.7545 15.0871 15.0083 14.1667 15.0083C13.2462 15.0083 12.5 15.7545 12.5 16.675C12.5 17.5954 13.2462 18.3416 14.1667 18.3416Z" stroke="white" stroke-width="0.833333" stroke-miterlimit="10"/>
<path d="M5.83341 18.3416C6.75389 18.3416 7.50008 17.5954 7.50008 16.675C7.50008 15.7545 6.75389 15.0083 5.83341 15.0083C4.91294 15.0083 4.16675 15.7545 4.16675 16.675C4.16675 17.5954 4.91294 18.3416 5.83341 18.3416Z" stroke="white" stroke-width="0.833333" stroke-miterlimit="10"/>
</svg>
