<svg width="20" height="20" viewBox="0 0 20 20" fill="none" xmlns="http://www.w3.org/2000/svg">
<path d="M3.3335 4.16667H15.8335C16.0872 4.16655 16.3375 4.22437 16.5655 4.33568C16.7935 4.447 16.9931 4.60888 17.149 4.80901C17.3049 5.00914 17.4132 5.24224 17.4654 5.49052C17.5176 5.7388 17.5123 5.99574 17.4501 6.24171L16.6168 11.2417C16.5259 11.6015 16.3174 11.9207 16.0245 12.1486C15.7317 12.3765 15.3713 12.5002 15.0002 12.5H5.00016C4.55814 12.5 4.13413 12.3244 3.82157 12.0119C3.50901 11.6993 3.3335 11.2754 3.3335 10.8333V4.16667ZM3.3335 4.16667C3.3335 3.72464 3.15778 3.30074 2.84521 2.98818C2.53265 2.67562 2.10886 2.5 1.66683 2.5H0.833496" stroke="#282723" stroke-width="0.833333" stroke-linejoin="round"/>
<path d="M14.1667 18.3416C15.0871 18.3416 15.8333 17.5954 15.8333 16.675C15.8333 15.7545 15.0871 15.0083 14.1667 15.0083C13.2462 15.0083 12.5 15.7545 12.5 16.675C12.5 17.5954 13.2462 18.3416 14.1667 18.3416Z" stroke="#282723" stroke-width="0.833333" stroke-miterlimit="10"/>
<path d="M5.83366 18.3416C6.75413 18.3416 7.50033 17.5954 7.50033 16.675C7.50033 15.7545 6.75413 15.0083 5.83366 15.0083C4.91318 15.0083 4.16699 15.7545 4.16699 16.675C4.16699 17.5954 4.91318 18.3416 5.83366 18.3416Z" stroke="#282723" stroke-width="0.833333" stroke-miterlimit="10"/>
</svg>
