<svg width="198" height="50" viewBox="0 0 198 50" fill="none" xmlns="http://www.w3.org/2000/svg">
<path d="M12.4583 49.9971C10.4052 49.9971 8.64657 49.7167 7.18078 49.154C5.71499 48.5931 4.19981 47.7746 2.63701 46.7004C0.878416 45.2346 0 43.499 0 41.497C0 41.0578 0.0476252 40.6168 0.146403 40.1776L0.806096 37.0996C0.952499 36.805 1.14653 36.6586 1.39171 36.6586C1.58573 36.6586 1.7586 36.7821 1.905 37.0255C2.78341 40.6909 4.1028 43.4143 5.86139 45.1958C7.62175 46.9809 9.84425 48.1662 12.5324 48.7518C13.118 48.8982 13.7513 48.9723 14.4374 48.9723C15.561 48.9723 16.6846 48.7642 17.8082 48.3479C18.9318 47.9334 19.8596 47.2737 20.5934 46.3688C21.3254 45.4675 21.6923 44.2821 21.6923 42.8164V42.4495C21.5459 40.9343 20.8738 39.6149 19.6762 38.4913C18.4802 37.3677 17.0144 36.3429 15.2805 35.4116C13.5449 34.4855 11.8092 33.5207 10.0753 32.5188C8.34142 31.5169 6.88798 30.381 5.71499 29.1092C4.54377 27.8392 3.9564 26.3011 3.9564 24.4931L4.03048 23.6129C4.07811 22.9797 4.32329 22.1965 4.76249 21.2687C5.2017 20.3427 5.99545 19.5225 7.14374 18.8134C8.29203 18.1061 9.94126 17.7515 12.0914 17.7515H12.9716C15.12 17.8979 16.7322 18.4112 17.8082 19.2896C19.1276 20.3162 19.7873 21.5615 19.7873 23.0273V26.8391C19.7873 27.0331 19.6638 27.1319 19.4204 27.1319C19.274 27.1319 19.1752 27.0578 19.1276 26.9114C18.7854 25.2516 18.1257 23.59 17.1485 21.9284C16.1695 20.2686 14.7778 19.1679 12.9716 18.63C12.5324 18.5329 12.0421 18.4836 11.5058 18.4836C10.2835 18.4836 9.0752 18.7764 7.87752 19.3637C6.67984 19.9493 6.08188 20.9283 6.08188 22.2953C6.08188 22.5881 6.1295 22.9074 6.22828 23.2478C6.52109 24.4684 7.33953 25.5673 8.68361 26.5445C10.0277 27.5235 11.6258 28.476 13.4849 29.4038C15.3405 30.3333 17.1608 31.3582 18.9441 32.4817C20.7274 33.6053 22.2303 34.9 23.4509 36.3658C24.6715 37.8334 25.2835 39.6396 25.2835 41.7898V42.0826C24.9414 45.1112 23.3415 47.2014 20.4822 48.3479C17.6248 49.498 14.9507 50.0448 12.4583 49.9971Z" fill="#282723"/>
<path d="M43.6045 49.2651C45.2643 49.2651 46.9136 48.7394 48.5522 47.6881C50.1873 46.6386 51.5561 44.9771 52.655 42.7052C53.7557 40.4333 54.3042 37.4894 54.3042 33.8734C54.3042 30.2098 53.7557 27.2429 52.655 24.9711C51.5561 22.6974 50.1873 21.0376 48.5522 19.9845C46.9136 18.9368 45.2643 18.4112 43.6045 18.4112C41.9429 18.4112 40.2955 18.9368 38.6586 19.9845C37.0199 21.0376 35.6529 22.6974 34.554 24.9711C33.4551 27.2429 32.9048 30.2098 32.9048 33.8734C32.9048 37.4894 33.4551 40.4333 34.554 42.7052C35.6529 44.9771 37.0199 46.6386 38.6586 47.6881C40.2955 48.7394 41.9429 49.2651 43.6045 49.2651ZM43.6045 49.9971C39.2071 49.9971 35.5435 48.6406 32.612 45.9295C29.6804 43.2185 28.2146 39.2003 28.2146 33.8734C28.2146 28.55 29.6804 24.5195 32.612 21.7819C35.5435 19.0462 39.2071 17.6774 43.6045 17.6774C48.0019 17.6774 51.6672 19.0462 54.597 21.7819C57.5304 24.5195 58.9962 28.55 58.9962 33.8734C58.9962 39.2003 57.5304 43.2185 54.597 45.9295C51.6672 48.6406 48.0019 49.9971 43.6045 49.9971Z" fill="#282723"/>
<path d="M100.037 49.5576H88.0916C87.8464 49.5576 87.6753 49.3865 87.5783 49.0443V48.8979C87.5783 48.6527 87.7476 48.5063 88.0916 48.4587C89.7038 48.1659 90.7392 47.5309 91.2048 46.5537C91.6705 45.5765 91.9033 44.8674 91.9033 44.4282V33.6527C91.8522 30.0878 91.2913 27.2039 90.2171 25.0061C89.1411 22.8065 87.7864 21.1943 86.1495 20.1695C84.5109 19.1429 82.8634 18.6296 81.2018 18.6296C79.6867 18.6296 78.1609 19.0706 76.6228 19.949C75.0829 20.8292 73.7741 22.2209 72.6999 24.1259C71.6257 26.0327 70.9413 28.5003 70.6485 31.5289V44.4282C70.6485 44.8674 70.8796 45.5765 71.3435 46.5537C71.8074 47.5309 72.8463 48.1659 74.4585 48.4587C74.7531 48.4587 74.9242 48.6051 74.9718 48.8979V49.0443C74.9718 49.3371 74.7778 49.51 74.3862 49.5576H62.5135C62.1713 49.5576 61.9755 49.3371 61.9279 48.8979C62.0743 48.6051 62.2436 48.4587 62.4411 48.4587C64.0533 48.1659 65.1011 47.5309 65.5914 46.5537C66.0783 45.5765 66.3252 44.8674 66.3252 44.4282V25.5917C66.3252 24.6145 65.8119 24.1012 64.7854 24.0536C64.5402 24.0536 64.295 24.1012 64.0533 24.2H63.9793C63.7835 24.2 63.6353 24.1012 63.54 23.9072L63.4677 23.6867C63.4677 23.5403 63.54 23.4186 63.6865 23.3198L69.2568 18.3368C69.4032 18.1904 69.5725 18.1163 69.7683 18.1163C70.2093 18.1163 70.5021 18.3862 70.6485 18.9224V22.8065C70.6485 23.2951 70.9413 23.5668 71.5287 23.6126C71.8215 23.6126 72.0649 23.4662 72.2607 23.1734C74.3121 19.9014 77.3178 18.0934 81.2742 17.7512L82.5212 17.6771C86.4776 17.6771 89.7514 19.1182 92.3425 22.0004C94.9302 24.8844 96.2266 28.8425 96.2266 33.8731V44.4282C96.2266 44.8674 96.47 45.5765 96.9586 46.5537C97.4455 47.5309 98.4985 48.1659 100.111 48.4587C100.354 48.4587 100.501 48.6051 100.55 48.8979V49.0443C100.55 49.3371 100.377 49.51 100.037 49.5576Z" fill="#282723"/>
<path d="M119.31 49.1187L120.556 49.0446C123.195 48.653 125.331 47.4942 126.969 45.5627C128.606 43.6348 129.423 41.3982 129.423 38.8582V31.5292C129.13 28.5006 128.447 26.0206 127.371 24.0909C126.297 22.1612 124.99 20.7554 123.452 19.877C121.912 18.9968 120.385 18.5576 118.871 18.5576C117.259 18.5576 115.62 19.0833 113.961 20.1328C112.297 21.184 110.918 22.8333 109.819 25.0787C108.72 27.3277 108.172 30.2592 108.172 33.8734C108.172 37.4894 108.72 40.3981 109.819 42.5959C110.918 44.7937 112.287 46.4059 113.924 47.4324C115.56 48.459 117.21 49.0199 118.871 49.1187H119.31ZM118.871 49.9248C114.522 49.9248 110.87 48.5684 107.914 45.8555C104.958 43.1444 103.48 39.151 103.48 33.8734C103.48 28.8428 104.848 24.8723 107.586 21.9637C110.32 19.0586 113.715 17.6051 117.772 17.6051L118.871 17.6774C122.78 18.0196 125.784 19.8523 127.885 23.1737C128.081 23.4189 128.301 23.5406 128.544 23.5406C128.984 23.5406 129.276 23.2725 129.423 22.7345L129.497 7.48923C129.497 6.56319 128.984 6.0499 127.959 5.95112L127.079 6.09753C126.932 6.09753 126.811 6.02345 126.712 5.87704L126.639 5.58424C126.639 5.43783 126.689 5.34082 126.786 5.29143L132.429 0.308449C132.624 0.162048 132.82 0.0879631 133.016 0.0879631C133.406 0.0879631 133.676 0.356075 133.822 0.894062V42.3754C134.016 43.2556 134.482 43.6948 135.215 43.6948C135.457 43.6948 135.727 43.6454 136.022 43.5484H136.168C136.314 43.5484 136.434 43.6454 136.533 43.8412L136.607 44.0616C136.607 44.208 136.556 44.3298 136.461 44.4285L131.183 49.1187C130.938 49.4115 130.621 49.5579 130.229 49.5579L130.01 49.4838C129.668 49.2404 129.497 48.9476 129.497 48.6054V48.2385C129.351 47.3125 129.008 46.8468 128.47 46.8468H128.324C127.982 46.8468 127.641 46.9456 127.299 47.1396C126.957 47.3354 126.615 47.5312 126.273 47.7252C124.368 49.191 121.9 49.9248 118.871 49.9248Z" fill="#282723"/>
<path d="M145.474 40.9826V40.7621C145.474 40.4217 145.596 39.7726 145.841 38.8201C146.086 37.8676 146.695 36.8781 147.674 35.8533C148.651 34.8267 150.189 33.9483 152.29 33.2145C154.879 32.4331 157.25 31.4312 159.4 30.2106C161.548 28.9882 162.746 27.4501 162.991 25.591L163.064 24.7849C163.064 23.1251 162.587 21.8304 161.635 20.9008C160.682 19.9748 159.594 19.338 158.372 18.9958C157.151 18.6554 156.077 18.4825 155.147 18.4825H154.929C153.267 18.5319 151.63 19.0822 150.018 20.1335C148.406 21.183 147.051 22.8199 145.952 25.0424C144.852 27.2667 144.301 30.2106 144.301 33.8742C144.301 34.07 144.363 34.9131 144.485 36.4018C144.606 37.8923 144.936 39.4198 145.474 40.9826ZM154.929 49.9961C150.581 49.9961 146.928 48.6414 143.971 45.9303C141.017 43.2192 139.539 39.1993 139.539 33.8742C139.539 28.549 141.017 24.5291 143.971 21.818C146.928 19.1069 150.581 17.7505 154.929 17.7505C156.98 17.7505 159.289 18.2267 161.854 19.1792C164.42 20.1335 166.142 21.781 167.022 24.1252C167.119 24.4691 167.168 24.7849 167.168 25.0777C167.168 26.3971 166.422 27.5965 164.932 28.6707C163.443 29.7449 161.621 30.7115 159.474 31.5652C157.322 32.4207 155.172 33.1898 153.024 33.8742C151.117 34.5092 149.69 35.5481 148.737 36.9874C147.783 38.4303 147.307 39.9825 147.307 41.6423C147.307 43.4997 147.931 45.1966 149.177 46.7364C150.422 48.2745 152.24 49.1177 154.636 49.2641H154.929C156.444 49.2641 157.945 48.8372 159.435 47.9817C160.926 47.1263 162.208 45.7963 163.284 43.9865C163.674 43.4503 164.138 43.1804 164.676 43.1804C165.066 43.1804 165.433 43.3286 165.777 43.6214C166.165 44.013 166.362 44.4275 166.362 44.8667C166.362 45.3059 166.189 45.6993 165.849 46.0397C162.917 48.6767 159.277 49.9961 154.929 49.9961Z" fill="#282723"/>
<path d="M182.557 49.5576H170.612C170.319 49.5576 170.146 49.3865 170.099 49.0443V48.8979C170.099 48.6527 170.245 48.5063 170.538 48.4587C172.198 48.1659 173.272 47.5309 173.762 46.5537C174.249 45.5765 174.47 44.8674 174.422 44.4282V25.5917C174.422 24.6145 173.932 24.1012 172.956 24.0536L172.078 24.2C171.88 24.2 171.734 24.1012 171.637 23.9072L171.565 23.6867C171.565 23.5403 171.637 23.4186 171.785 23.3198L177.354 18.3368C177.548 18.1904 177.721 18.1163 177.867 18.1163C178.306 18.1163 178.599 18.4109 178.745 18.9965V22.8065C178.745 23.2475 179.013 23.4927 179.551 23.5403C179.797 23.5403 179.992 23.4186 180.139 23.1734C181.751 19.852 184.316 18.044 187.833 17.7512L189.08 17.6771C192.304 17.6771 194.82 18.679 196.629 20.6828C196.922 21.0232 197.069 21.3901 197.069 21.7817C197.069 22.2703 196.848 22.6866 196.409 23.027C196.116 23.2722 195.749 23.3939 195.308 23.3939C194.723 23.3939 194.234 23.1258 193.842 22.5878C192.377 19.9984 190.375 18.679 187.833 18.6296H187.614C185.707 18.6296 183.887 19.6439 182.153 21.6706C180.419 23.699 179.283 26.7911 178.745 30.9416V44.4282C178.745 44.8674 178.991 45.5765 179.479 46.5537C179.966 47.5309 180.993 48.1659 182.557 48.4587C182.85 48.4587 183.021 48.6051 183.07 48.8979V49.0443C183.07 49.3371 182.898 49.51 182.557 49.5576Z" fill="#282723"/>
</svg>
