<svg width="375" height="111" viewBox="0 0 375 111" fill="none" xmlns="http://www.w3.org/2000/svg">
<path d="M263.094 24.128C263.364 27.7765 263.783 30.7389 264.162 33.3571C264.626 36.6033 264.996 39.184 264.793 41.406C264.794 41.4768 264.781 41.5706 264.762 41.6807C264.769 41.691 264.775 41.7012 264.77 41.7176C264.647 42.8143 264.292 45.6951 263.377 49.1893C262.091 54.0277 259.688 60.0313 255.308 63.909C247.264 71.0299 240.298 74.7848 233.393 75.711C225.548 76.7708 213.74 75.7261 206.344 70.9264C199.178 66.2695 189.458 59.1456 187.669 50.8959C186.717 46.5009 186.422 43.648 186.525 41.4726C186.596 40.1253 186.797 39.0376 187.101 38.0026C187.249 37.5011 187.402 37.0098 187.577 36.5065C188.745 33.1006 193.92 28.3403 193.976 28.2919L194.021 28.2502C194.035 28.2272 194.696 27.4982 196.039 26.6785C197.34 25.8848 199.266 25.0203 201.853 24.6616C207.66 23.8388 213.796 22.4892 219.282 18.1208C223.133 15.0477 225.689 11.4319 227.558 8.80279C228.324 7.71206 228.983 6.77076 229.516 6.20392C230.772 4.87061 238.546 -1.20612 245.104 2.24754C247.253 3.37457 248.912 4.11987 250.228 4.71937C252.983 5.95892 254.237 6.52636 255.75 8.56565C256.101 9.04598 256.497 9.55535 256.922 10.0895C259.311 13.0973 262.581 17.2255 263.094 24.128ZM257.89 9.3291C257.471 8.80521 257.07 8.31217 256.726 7.84152C255.038 5.54028 253.515 4.85487 250.737 3.60142C249.427 3.01159 247.79 2.28142 245.676 1.16225C238.991 -2.35735 230.832 3.01945 228.626 5.37272C228.032 6.00429 227.378 6.92865 226.559 8.09439C224.729 10.6715 222.236 14.2056 218.521 17.1535C213.265 21.3392 207.32 22.6568 201.69 23.442C196.151 24.2145 193.433 27.0778 193.124 27.4081C192.681 27.82 187.667 32.4969 186.408 36.1006C185.809 37.8126 185.414 39.3722 185.308 41.2657C183.974 45.1422 183.678 48.2571 185.408 56.2025C187.283 64.8963 197.261 72.2313 204.599 77.0098C212.264 81.9716 224.419 83.0732 232.483 81.9789C236.758 81.4114 241.037 79.8059 245.541 77.0576C248.588 75.198 251.726 72.8145 255.052 69.8774C261.418 64.2351 263.755 54.4306 264.568 49.4682C265.619 45.4525 265.96 42.2257 266.019 41.5089C266.221 39.1459 265.846 36.5114 265.375 33.1841C265.008 30.5865 264.586 27.6404 264.313 24.0361C263.768 16.7555 260.37 12.4652 257.89 9.3291Z" fill="#282723"/>
<path d="M110.156 102.039C108.03 103.419 100.615 107.795 94.3216 106.235C94.3119 106.232 94.301 106.23 94.2919 106.227C88.1469 104.685 85.0084 102.711 84.9842 102.696C84.4675 102.355 83.1905 101.626 82.4863 102.225C82.1941 102.474 81.7053 102.89 84.8571 109.791C84.8747 109.824 86.6423 113.109 85.8553 116.579C85.358 118.773 84.0368 124.599 82.6224 126.061C80.5632 128.188 72.8271 135.351 59.7275 138.206C45.9328 141.212 41.372 140.118 36.8434 138.376C32.3195 136.635 31.0697 134.739 30.7267 133.764C30.6178 133.454 30.4696 132.973 30.2718 132.333C29.7182 130.539 28.7903 127.536 27.2797 123.544C25.2465 118.175 18.9126 102.642 18.8449 102.477L7.75248 76.8153C5.44399 71.2026 1.95583 62.6661 1.8179 62.2003C1.80096 62.0781 1.74833 61.9323 1.63158 61.6159C1.56503 61.435 1.47551 61.193 1.38597 60.9208C1.50575 60.9753 1.76891 61.0811 2.21113 61.1906C4.05683 61.6486 8.91338 62.1337 18.4728 58.8283C30.7884 54.5694 32.3534 53.8816 38.5953 50.9439C42.4337 49.1382 45.2546 47.9531 47.522 47.0015C48.871 46.4346 50.0367 45.9452 51.0833 45.4631C53.8449 44.1921 57.5236 42.085 58.8993 40.7578C59.2792 40.39 59.7027 40.0506 60.0765 39.7505C60.5266 39.3894 60.9779 39.0216 61.2713 38.6417C61.5133 38.9871 61.8569 39.6876 62.4764 41.448C63.0825 43.1728 63.8544 45.9011 64.5356 48.3088C65.3898 51.3293 65.9288 53.2089 66.2319 53.7757C66.3541 54.005 66.4563 54.2603 66.5574 54.5107C66.8308 55.1907 67.1145 55.8924 67.7539 56.1586C68.1163 56.3068 68.5283 56.2881 68.9814 56.0957C70.1096 55.6178 70.6716 53.8852 71.1677 52.3559C71.3837 51.6911 71.5869 51.0631 71.7968 50.6705L71.9293 50.4176C74.7236 45.0638 78.0224 42.0155 81.7332 41.3579C87.9127 40.2635 91.2369 39.9683 95.0136 41.9852C98.8351 44.0269 102.39 47.5 103.066 48.901C103.77 50.365 104.932 55.3238 105.148 59.7641C105.355 64.0339 106.246 67.3666 107.529 68.6787C108.66 69.8323 112.177 74.2194 113.574 77.1202C114.406 78.8485 117.057 84.8654 116.217 89.7262C115.464 94.0891 112.653 100.417 110.156 102.039ZM10.5824 52.9645C21.8817 48.3983 25.0414 47.1491 30.1351 45.3578C35.3637 43.5194 44.5789 40.8673 45.6853 40.5709C46.8608 40.2563 54.7499 38.4517 56.5006 38.2218C56.8939 38.1704 57.3101 38.1014 57.7257 38.0325C58.6277 37.8825 60.2907 37.6054 60.5562 37.8879C60.4982 38.1051 59.8648 38.6144 59.4389 38.9556C59.0487 39.2696 58.6053 39.6247 58.1915 40.024C56.9114 41.2593 53.2841 43.3294 50.6574 44.5375C49.6266 45.013 48.4681 45.4988 47.1275 46.0614C44.8517 47.0178 42.0193 48.2072 38.1615 50.0226C31.9614 52.9403 30.4061 53.6239 18.1395 57.8658C6.12516 62.0194 1.81791 60.0019 1.7798 59.9819L1.67696 59.942C1.62433 59.9269 1.17182 59.7726 1.02119 59.0981C1.02482 58.8634 1.05748 58.6504 1.14702 58.4895L1.35028 58.1241L1.18694 57.9856C1.39625 57.622 2.68843 56.155 10.5824 52.9645ZM117.221 89.8992C118.088 84.8817 115.601 78.9822 114.491 76.6786C113.047 73.6786 109.421 69.1542 108.257 67.9661C107.397 67.0871 106.396 64.4573 106.165 59.7145C105.943 55.1484 104.724 49.9984 103.983 48.4594C103.215 46.8642 99.6143 43.2877 95.494 41.0869C91.4372 38.9193 87.9708 39.217 81.5553 40.3549C77.5173 41.0712 73.9747 44.2973 71.0261 49.9464L70.8985 50.1902C70.6456 50.6626 70.4284 51.3329 70.1986 52.0413C69.8126 53.2313 69.2845 54.861 68.5845 55.158C68.3922 55.2385 68.244 55.2621 68.1447 55.2179C67.8991 55.1157 67.688 54.5918 67.5023 54.1302C67.3898 53.852 67.2736 53.564 67.1302 53.2954C66.8641 52.7975 66.1786 50.3741 65.5162 48.0311C64.8308 45.6095 64.0541 42.8648 63.437 41.1099C62.4957 38.4324 62.1309 37.9774 61.6427 37.5455C61.5599 37.4723 61.4752 37.3991 61.3772 37.2721C60.7722 36.4935 59.2828 36.7403 57.5587 37.0277C57.1546 37.0942 56.7505 37.1613 56.3676 37.2122C54.589 37.4457 46.6079 39.2696 45.4216 39.5872C44.3109 39.8842 35.0521 42.549 29.7969 44.3966C24.6832 46.1945 21.5181 47.4467 10.2007 52.0208C0.457978 55.9578 0.220229 57.4302 0.141585 57.9142C0.122831 58.031 0.127068 58.1374 0.147031 58.2324C-0.283089 59.3721 0.333957 61.043 0.675754 61.9692C0.742904 62.1495 0.795539 62.2856 0.809453 62.3437C0.857849 62.6842 4.09917 70.6121 6.81419 77.2103L17.9054 102.871C17.9695 103.027 24.2979 118.547 26.3269 123.905C27.8266 127.867 28.7479 130.851 29.2984 132.634C29.5017 133.291 29.6541 133.784 29.7654 134.102C30.1665 135.243 31.5718 137.438 36.4774 139.325C37.5354 139.733 38.6128 140.11 39.8234 140.41C43.7918 141.394 49.1801 141.547 59.9446 139.201C73.3231 136.286 81.245 128.948 83.3544 126.769C84.7755 125.301 85.9182 120.908 86.8492 116.805C87.7234 112.948 85.8305 109.448 85.767 109.334C84.646 106.88 83.4712 103.969 83.2939 103.025C83.5656 103.077 84.038 103.293 84.4282 103.55C84.5601 103.633 87.7197 105.629 94.0439 107.216C94.0548 107.218 94.0651 107.221 94.076 107.224C100.769 108.883 108.498 104.33 110.71 102.894C113.462 101.106 116.417 94.5591 117.221 89.8992Z" fill="#282723"/>
<path d="M108.561 90.3004C108.13 90.9568 107.795 91.7862 107.441 92.6639C106.666 94.5907 105.786 96.7728 103.604 97.7921C100.305 99.3329 96.4972 100.873 93.0961 99.6536C90.5106 98.7262 88.778 97.342 87.801 95.4219C87.3896 94.6131 86.5385 93.4322 85.7151 92.2895C85.2306 91.6168 84.7297 90.9205 84.3413 90.3325C83.285 88.7312 80.9451 84.2213 79.6457 78.6079C78.3686 73.0944 77.0335 62.7939 77.0014 62.2766C77.0008 62.2155 76.9821 62.0437 76.9506 61.7915C76.8429 60.9095 76.5574 58.5671 76.8466 57.2743C77.2107 55.6506 78.4182 52.9767 78.4303 52.9495L78.4497 52.8987C78.4678 52.8449 80.3226 47.4789 87.3267 47.8964C88.2674 47.9526 89.1192 48.0857 89.8893 48.2769C94.885 49.5158 96.4439 53.1449 96.5226 53.3349C96.5401 53.3742 98.3048 57.3753 98.7052 62.8235C99.1215 68.4925 103.293 75.5432 103.507 75.8941C103.536 75.9322 106.475 79.6853 107.288 81.7325C108.941 85.8939 109.405 89.0167 108.561 90.3004ZM104.345 75.3194C104.302 75.248 100.12 68.1755 99.721 62.7491C99.3066 57.1116 97.528 53.0868 97.4591 52.9344C97.3665 52.7063 95.0937 47.3434 87.3872 46.8788C79.904 46.4336 77.6699 52.0663 77.4939 52.5478C77.3747 52.8116 76.2277 55.3796 75.8526 57.0511C75.5247 58.5157 75.8157 60.898 75.9397 61.9149C75.9633 62.1067 75.9803 62.241 75.9827 62.2936C75.9899 62.714 77.3347 73.1464 78.6529 78.8378C79.985 84.5921 82.4 89.2393 83.4907 90.8933C83.8906 91.4994 84.3982 92.2036 84.8894 92.8848C85.6897 93.9961 86.5173 95.1449 86.893 95.8835C87.9783 98.0166 89.9498 99.6076 92.7525 100.612C93.0199 100.709 93.2891 100.79 93.5595 100.857C97.0906 101.732 100.8 100.225 104.035 98.7147C106.581 97.5265 107.582 95.0414 108.386 93.0451C108.721 92.2157 109.037 91.4317 109.412 90.86C110.751 88.8243 109.511 84.5685 108.234 81.3568C107.367 79.1723 104.432 75.4235 104.345 75.3194Z" fill="#282723"/>
<path d="M252.588 110.656C252.516 105.274 254.596 102.854 256.115 101.087L256.489 100.655C256.973 100.329 261.341 97.5161 265.518 98.265C267.663 98.6486 269.441 99.9105 270.803 102.015C275.827 109.797 281.224 119.332 278.348 124.021C277.248 125.825 275.987 127.066 274.437 127.774C272.015 128.879 268.885 128.686 264.55 127.312C257.6 125.115 252.668 116.77 252.588 110.656ZM274.795 128.534C276.461 127.773 277.862 126.435 279.078 124.441C282.178 119.382 277.001 110.033 271.527 101.554C270.035 99.2517 268.071 97.8676 265.688 97.4399C262.972 96.9523 260.268 97.8004 258.392 98.6564C257.068 99.2608 256.156 99.8693 255.945 100.015L255.465 100.557C253.949 102.322 251.658 104.988 251.734 110.684C251.82 117.079 256.989 125.808 264.272 128.11C268.882 129.571 272.226 129.706 274.795 128.534Z" fill="#282723"/>
<path d="M273.593 78.0769C273.639 76.9735 276.805 75.1508 280.043 73.3777C281.824 72.4025 283.344 71.5688 284.035 70.9391L285.609 69.7395C293.079 64.0378 300.803 58.1407 309.836 55.015C313.213 53.5951 315.957 53.8982 319.431 54.28L319.824 54.3235C323.938 54.7954 327.896 53.8075 332.657 51.1209C333.36 50.7852 334.216 50.3097 335.207 49.7585C339.481 47.3859 345.939 43.7955 348.231 46.9074L348.252 46.9365L348.253 46.9715C348.396 49.5184 339.402 55.9908 335.567 58.0421C332.855 59.4989 329.958 60.1764 326.892 60.8915L326.832 60.9048C323.643 61.6513 320.344 62.4238 317.301 64.1479C314.104 65.8339 311.856 68.5405 309.682 71.1581C308.493 72.5906 307.279 74.0546 305.96 75.3008C302.953 77.8718 299.345 79.8845 296.063 81.3818C293.445 82.5765 291.036 83.4434 289.305 84.0048C285.711 84.9879 284.055 83.6582 281.959 81.9746C280.929 81.147 279.872 80.2971 278.467 79.6431C277.513 79.2451 276.49 79.0122 275.587 78.8071C274.821 78.6316 273.962 78.4362 273.637 78.1755L273.591 78.138L273.593 78.0769ZM275.37 79.622C276.247 79.821 277.232 80.0448 278.102 80.4078C279.404 81.0146 280.422 81.8324 281.407 82.6243C283.51 84.314 285.496 85.9104 289.537 84.8076C291.157 84.2795 293.668 83.3872 296.395 82.1428C300.45 80.2928 303.859 78.1967 306.528 75.913C307.901 74.6178 309.133 73.1326 310.325 71.6947C312.45 69.1357 314.644 66.4915 317.704 64.8775C320.665 63.2048 323.909 62.4462 327.047 61.713C330.03 61.0149 333.114 60.2944 335.963 58.7766C337.616 57.8915 349.712 50.3484 349.082 46.6969L349.067 46.611L349.018 46.5396C346.366 42.6092 339.409 46.47 334.808 49.0272L334.706 49.0828C333.765 49.6061 332.951 50.0574 332.271 50.3835C327.653 52.9799 323.849 53.9412 319.938 53.4911L319.548 53.4475C316.084 53.0664 313.099 52.7385 309.541 54.2352C300.396 57.4015 292.612 63.3451 285.079 69.0928L283.493 70.3045C282.849 70.8895 281.301 71.7376 279.663 72.636C275.252 75.0497 272.404 76.749 272.771 78.4157L272.821 78.5457L272.877 78.6214C273.253 79.138 274.141 79.3407 275.37 79.622Z" fill="#282723"/>
<path d="M258.553 85.8116C260.535 85.1667 262.385 84.5636 263.935 83.779C266.329 82.6096 267.715 80.462 269.056 78.3846C269.883 77.1039 270.663 75.8946 271.659 74.9007C273.153 73.4295 275.395 72.2359 277.563 71.0816C278.596 70.5336 279.762 69.9135 280.786 69.2825C283.099 67.8936 285.029 66.2475 287.072 64.5046C288.74 63.083 290.443 61.6311 292.367 60.3305C296.816 57.2555 301.722 54.8308 306.366 52.6107C309.875 50.9828 312.209 49.9991 315.114 50.0493C316.214 50.0366 317.336 50.1649 318.522 50.3004C320.854 50.5666 323.259 50.8406 325.487 49.9562C327.331 49.2012 329.318 48.1595 331.239 47.151C336.39 44.4475 342.232 41.3816 347.734 42.3918C351.124 43.3023 352.369 47.1504 353.466 50.5454L353.478 50.5829C353.718 51.3227 353.944 52.0227 354.186 52.6736C356.171 58.5882 359.34 65.9577 361.602 70.6406C362.774 73.2558 364.124 75.4367 365.429 77.5449L365.445 77.571C367.15 80.3193 368.911 83.1595 370.304 87.0082C370.99 89.0148 371.485 91.1709 371.964 93.2561C372.42 95.2331 372.889 97.2772 373.53 99.2131C377.029 108.557 364.067 117.212 360.01 119.64C352.312 124.326 345.155 128.181 338.505 131.215C324.993 137.38 313.57 140.164 303.913 139.681C300.967 139.296 299.537 138.503 297.618 136.981C293.961 133.491 289.36 133.089 283.54 135.745C283.219 135.891 282.907 136.04 282.606 136.189C277.552 138.421 273.23 139.701 269.39 140.104C260.869 141.336 254.718 137.331 251.06 133.754C243.919 126.774 239.905 115.215 241.3 105.644L241.334 105.497C242.71 100.524 245.459 95.1212 248.689 91.039C250.87 88.3058 254.776 87.0378 258.553 85.8116ZM240.506 105.31L240.462 105.508C239.028 115.336 243.135 127.203 250.452 134.355C255.891 139.674 262.471 141.949 269.48 140.934C273.401 140.523 277.809 139.218 282.96 136.944C283.25 136.802 283.535 136.665 283.817 136.537C289.467 133.958 293.574 134.302 297.044 137.612C299.058 139.212 300.662 140.104 303.817 140.514C313.699 141.009 325.175 138.208 338.892 131.949C345.518 128.926 352.769 125.024 360.446 120.352C365.829 117.129 377.956 108.587 374.337 98.9245C373.717 97.0498 373.251 95.0256 372.799 93.0662C372.313 90.9531 371.815 88.7801 371.111 86.7202C369.688 82.7881 367.904 79.9097 366.179 77.1251C364.879 75.0271 363.538 72.8638 362.38 70.2783C360.13 65.622 356.973 58.2845 354.996 52.3923C354.75 51.7305 354.526 51.0348 354.287 50.2986C353.118 46.6822 351.801 42.6108 347.944 41.5764C342.115 40.5032 336.131 43.6429 330.85 46.4136C328.954 47.4081 326.994 48.4371 325.178 49.1818C323.16 49.9822 320.972 49.7341 318.654 49.4698C317.485 49.3355 316.289 49.1982 315.135 49.2133C312.105 49.157 309.659 50.1667 306.01 51.8569C301.33 54.0952 296.384 56.5404 291.889 59.6451C289.919 60.9778 288.193 62.4508 286.522 63.8761C284.502 65.5984 282.6 67.2202 280.346 68.5723C279.368 69.1761 278.266 69.7629 277.201 70.3315L277.172 70.346C274.949 71.5281 272.65 72.7501 271.059 74.3193C270.001 75.3732 269.16 76.6726 268.348 77.9291C267.002 80.0144 265.741 81.9683 263.561 83.0325C262.066 83.7965 260.235 84.3888 258.3 85.0161C254.395 86.2847 250.363 87.592 248.019 90.532C244.723 94.6989 241.914 100.224 240.506 105.31Z" fill="#282723"/>
<path d="M173.599 144.102L168.184 144.098L162.639 143.792C157.574 143.515 148.178 141.054 139.996 137.945C138.828 137.501 137.684 137.044 136.581 136.577C136.057 136.357 135.556 136.136 135.068 135.915C134.825 135.804 134.595 135.694 134.361 135.584C134.128 135.475 133.892 135.366 133.667 135.256C133.401 135.127 133.146 134.998 132.891 134.869C132.718 134.782 132.543 134.694 132.375 134.607C132.107 134.468 131.848 134.33 131.594 134.193C131.459 134.119 131.325 134.047 131.194 133.975C130.929 133.828 130.669 133.682 130.419 133.538C130.321 133.482 130.227 133.427 130.132 133.371C129.865 133.215 129.602 133.059 129.353 132.907C129.304 132.877 129.257 132.847 129.209 132.817C126.758 131.305 125.2 130.018 124.418 129.309C124.418 129.309 124.418 129.309 124.417 129.308C124.219 129.128 124.07 128.986 123.969 128.887C123.998 128.573 123.88 128.255 123.632 128.032C122.542 127.074 117.093 122.097 116.864 118.158C116.559 113.023 117.491 108.146 117.784 106.774C118.251 104.611 121.654 95.5561 123.298 91.8962C124.889 88.3536 128.875 77.6617 130.198 73.6998C130.972 71.3732 131.693 68.467 132.272 66.1319C132.382 65.6915 132.487 65.2692 132.586 64.8778C132.596 64.902 132.611 64.9281 132.623 64.9523C132.652 65.0146 132.684 65.0781 132.716 65.1416C132.752 65.2112 132.79 65.2819 132.831 65.3533C132.868 65.4187 132.909 65.4852 132.951 65.5524C132.998 65.6262 133.047 65.7012 133.099 65.7774C133.146 65.8458 133.196 65.9147 133.248 65.9849C133.306 66.0629 133.367 66.1416 133.432 66.2214C133.489 66.2928 133.549 66.3642 133.612 66.4374C133.683 66.5191 133.759 66.6026 133.837 66.686C133.906 66.7598 133.976 66.8337 134.05 66.9087C134.136 66.9946 134.226 67.0817 134.319 67.1688C134.4 67.245 134.482 67.3212 134.569 67.3987C134.669 67.4882 134.777 67.5789 134.886 67.6697C134.979 67.7477 135.073 67.8252 135.172 67.9044C135.29 67.9976 135.416 68.0919 135.543 68.1869C135.65 68.2662 135.755 68.3454 135.868 68.4259C136.005 68.5233 136.151 68.6213 136.298 68.7199C136.418 68.8003 136.535 68.8802 136.662 68.9613C136.819 69.0623 136.988 69.1639 137.155 69.2662C137.29 69.3472 137.42 69.4283 137.561 69.5106C137.74 69.6146 137.933 69.7199 138.123 69.8251C138.272 69.9074 138.416 69.9885 138.571 70.0707C138.775 70.1796 138.995 70.2891 139.213 70.3986C139.374 70.4797 139.529 70.5602 139.696 70.6418C139.932 70.7561 140.186 70.8717 140.435 70.9872C140.605 71.0653 140.768 71.1427 140.945 71.222C141.218 71.3436 141.511 71.4664 141.801 71.5892C141.976 71.663 142.141 71.7362 142.324 71.8106C142.654 71.9461 143.008 72.0828 143.36 72.2195C143.521 72.2818 143.671 72.3435 143.836 72.4059C144.364 72.6055 144.914 72.8057 145.49 73.0066C150.539 74.7736 154.796 77.067 158.912 79.2848C159.563 79.635 160.209 79.9829 160.853 80.3265C160.854 80.3271 160.855 80.3277 160.856 80.3283C161.49 80.6659 162.121 80.9986 162.753 81.3246C162.767 81.3319 162.782 81.3398 162.796 81.347C163.417 81.667 164.039 81.9792 164.663 82.2835C164.69 82.2968 164.716 82.3101 164.743 82.3234C165.357 82.6217 165.975 82.9108 166.597 83.1897C166.624 83.2024 166.651 83.2157 166.678 83.2278C166.695 83.2357 166.712 83.2423 166.728 83.2496C166.927 83.3385 167.129 83.425 167.33 83.5115C167.468 83.5714 167.606 83.6325 167.745 83.6912C167.943 83.7753 168.145 83.8558 168.345 83.9374C168.487 83.9955 168.629 84.0548 168.772 84.1117C168.97 84.1897 169.171 84.2647 169.371 84.3409C169.518 84.3966 169.664 84.4547 169.812 84.5091C170.012 84.5823 170.212 84.6513 170.413 84.7208C170.564 84.7747 170.715 84.8297 170.868 84.8812C171.072 84.9501 171.279 85.0148 171.486 85.0808C171.637 85.1292 171.786 85.18 171.939 85.2266C172.152 85.2919 172.37 85.353 172.586 85.4147C172.734 85.4577 172.881 85.503 173.03 85.5436C173.266 85.6083 173.506 85.6676 173.745 85.7281C173.878 85.7614 174.008 85.7977 174.142 85.8303C174.517 85.9199 174.895 86.0051 175.277 86.0838C185.665 88.2338 190.24 88.9289 193.409 88.8406C193.684 88.8333 193.96 88.8242 194.236 88.8139C194.303 88.8115 194.37 88.8085 194.438 88.8055C194.709 88.794 194.98 88.7813 195.248 88.7643C195.257 88.7637 195.268 88.7631 195.277 88.7625C195.553 88.745 195.824 88.7238 196.091 88.6996C196.153 88.6936 196.214 88.6875 196.275 88.6815C196.513 88.6585 196.747 88.6319 196.975 88.6022C197.007 88.598 197.041 88.5943 197.073 88.5901C197.322 88.5556 197.563 88.5163 197.799 88.4721C197.856 88.4619 197.912 88.4504 197.968 88.4389C198.167 88.3989 198.358 88.3554 198.543 88.3076C198.582 88.2979 198.623 88.2888 198.661 88.278C198.871 88.2205 199.069 88.1564 199.257 88.0868C199.302 88.0698 199.344 88.0517 199.388 88.0342C199.542 87.9731 199.686 87.9071 199.821 87.8357C199.845 87.823 199.876 87.8133 199.899 87.8C199.745 88.8696 199.447 89.5949 197.316 94.4309C194.328 101.222 193.248 108.033 193.25 108.043C193.227 108.119 190.995 115.684 189.28 119.938C186.183 127.62 184.303 133.39 183.693 137.087C182.957 141.545 179.279 144.102 173.599 144.102ZM160.954 156.698C157.669 157.29 148.591 157.984 135.235 151.808C121.133 145.275 121.003 135.643 121.481 134.503C121.939 133.425 123.017 131.078 123.611 129.796C123.69 129.871 123.781 129.955 123.882 130.046C123.904 130.066 123.931 130.089 123.954 130.11C124.045 130.191 124.142 130.277 124.25 130.37C124.295 130.409 124.345 130.451 124.393 130.491C124.49 130.574 124.589 130.658 124.698 130.747C124.757 130.795 124.819 130.845 124.881 130.895C124.993 130.986 125.111 131.079 125.235 131.176C125.302 131.229 125.37 131.282 125.441 131.336C125.577 131.441 125.722 131.549 125.871 131.661C125.941 131.713 126.009 131.763 126.081 131.817C126.265 131.951 126.46 132.09 126.663 132.232C126.712 132.266 126.755 132.298 126.805 132.332C127.065 132.513 127.339 132.699 127.63 132.89C127.664 132.912 127.702 132.936 127.737 132.958C127.99 133.124 128.253 133.291 128.528 133.463C128.62 133.52 128.716 133.578 128.811 133.636C129.041 133.776 129.276 133.918 129.522 134.063C129.638 134.131 129.757 134.2 129.877 134.269C130.116 134.407 130.362 134.546 130.617 134.687C130.748 134.76 130.878 134.832 131.013 134.905C131.28 135.05 131.557 135.197 131.839 135.343C131.97 135.412 132.097 135.479 132.231 135.548C132.58 135.725 132.942 135.905 133.313 136.085C133.39 136.122 133.46 136.158 133.538 136.196C133.992 136.413 134.462 136.63 134.948 136.848C134.969 136.857 134.987 136.867 135.007 136.876C135.403 137.053 135.811 137.231 136.23 137.407C145.135 141.171 156.714 144.371 162.59 144.692L167.488 144.962C166.869 146.456 165.324 150.373 165.188 152.588C165.045 154.869 163.661 156.213 160.954 156.698ZM136.111 60.1931L136.187 60.1465C136.231 60.1139 140.765 56.9457 157.327 61.5966C173.805 66.2239 189.431 73.4688 193.934 76.7065C198.158 79.7433 200.531 83.3204 200.127 86.0451L200.072 86.4256C200.061 86.4528 200.046 86.4788 200.032 86.5054C200.018 86.5321 200.006 86.5587 199.989 86.5847C199.969 86.6131 199.944 86.6397 199.921 86.6676C199.9 86.6918 199.882 86.7166 199.857 86.7408C199.83 86.768 199.796 86.794 199.765 86.8206C199.738 86.843 199.712 86.8654 199.682 86.8872C199.646 86.9132 199.603 86.9386 199.563 86.9634C199.53 86.984 199.499 87.0051 199.462 87.0251C199.417 87.0499 199.366 87.0735 199.315 87.0971C199.277 87.1158 199.24 87.1352 199.198 87.1527C199.144 87.1763 199.083 87.1987 199.024 87.2211C198.979 87.238 198.937 87.2556 198.889 87.2719C198.825 87.2943 198.754 87.3155 198.684 87.3366C198.635 87.3512 198.589 87.3669 198.537 87.3814C198.462 87.4026 198.38 87.4219 198.3 87.4419C198.246 87.4552 198.196 87.4685 198.141 87.4812C198.055 87.5012 197.963 87.5187 197.871 87.5375C197.814 87.549 197.759 87.5611 197.7 87.572C197.604 87.5895 197.501 87.6065 197.399 87.6228C197.337 87.6331 197.279 87.6434 197.215 87.653C197.106 87.6694 196.99 87.6845 196.875 87.6996C196.812 87.7075 196.752 87.7166 196.687 87.725C196.566 87.7395 196.438 87.7523 196.311 87.7656C196.245 87.7728 196.182 87.7807 196.114 87.7867C195.972 87.8007 195.824 87.8121 195.675 87.8242C195.615 87.8291 195.56 87.8351 195.499 87.8394C195.338 87.8515 195.168 87.8617 194.998 87.872C194.944 87.8757 194.893 87.8793 194.838 87.8823C194.66 87.8926 194.473 87.9011 194.286 87.9089C194.234 87.9114 194.185 87.9138 194.133 87.9162C193.891 87.9253 193.642 87.9337 193.386 87.9398C190.294 88.0263 185.771 87.3348 175.459 85.2018C169.515 83.9731 164.572 81.3107 159.34 78.4917C158.735 78.1656 158.126 77.8383 157.513 77.511C157.349 77.4233 157.185 77.3368 157.02 77.2491C156.523 76.9853 156.02 76.7222 155.514 76.4596C155.334 76.3659 155.153 76.2727 154.971 76.1789C153.662 75.508 152.316 74.8499 150.918 74.2195C150.847 74.1874 150.78 74.1536 150.708 74.1215C150.596 74.0713 150.478 74.0253 150.365 73.9757C149.821 73.7355 149.267 73.5014 148.705 73.2715C148.495 73.185 148.286 73.0991 148.073 73.0144C147.326 72.7186 146.57 72.43 145.787 72.1566C141.263 70.5759 138.321 69.075 136.424 67.7405C134.528 66.406 133.676 65.2378 133.332 64.3231C132.938 63.2783 133.239 62.5966 133.347 62.4036C134.101 61.1816 136.091 60.2028 136.111 60.1931ZM190.116 120.274C191.847 115.98 194.092 108.374 194.127 108.239C194.138 108.172 195.202 101.473 198.141 94.7939C200.662 89.0716 200.673 88.9749 200.863 87.356C200.888 87.1425 200.916 86.9011 200.955 86.6137C200.999 86.471 201.021 86.3221 201.019 86.1703C201.024 86.1382 201.023 86.105 201.027 86.0723L201.052 85.4123C201.062 85.128 201.041 84.8443 200.989 84.5648L200.896 84.0766C200.279 81.4511 197.982 78.508 194.46 75.9751C189.905 72.6987 174.147 65.3836 157.57 60.7291C141.107 56.106 136.208 59.034 135.682 59.4012C135.387 59.5482 133.532 60.5186 132.651 61.8368L132.642 61.8307C132.642 61.8307 132.616 61.8676 132.575 61.9378C132.575 61.939 132.574 61.9396 132.574 61.9408C132.571 61.945 132.57 61.9463 132.567 61.9511C132.567 61.9517 132.566 61.9517 132.566 61.9523C132.563 61.9577 132.559 61.9674 132.556 61.9729C132.439 62.1665 132.35 62.3534 132.29 62.5379C132.076 63.1816 131.777 64.3884 131.398 65.9147C130.823 68.2347 130.106 71.1221 129.344 73.4149C128.058 77.2654 124.027 88.0753 122.476 91.5271C120.922 94.9869 117.422 104.184 116.903 106.586C116.604 107.985 115.653 112.963 115.965 118.21C116.208 122.402 121.447 127.311 123.037 128.707C123.075 128.741 123.085 128.788 123.064 128.834C122.611 129.805 121.199 132.865 120.651 134.153C119.766 136.261 121.069 146.238 134.857 152.626C135.161 152.767 135.462 152.904 135.761 153.038C148.853 158.892 157.82 158.179 161.113 157.585C164.245 157.023 165.918 155.361 166.087 152.644C166.225 150.417 167.982 146.112 168.451 144.999L173.599 145.002L173.599 145.002C179.674 145.003 183.78 142.099 184.582 137.234C185.181 133.601 187.043 127.896 190.116 120.274Z" fill="#282723"/>
</svg>
