<svg width="20" height="20" viewBox="0 0 20 20" fill="none" xmlns="http://www.w3.org/2000/svg">
<path d="M3.33301 11.6665H5.32884C5.57384 11.6665 5.81551 11.7215 6.03467 11.8282L7.73634 12.6515C7.95551 12.7573 8.19717 12.8123 8.44301 12.8123H9.31134C10.1513 12.8123 10.833 13.4715 10.833 14.2848C10.833 14.3182 10.8105 14.3465 10.778 14.3557L8.66051 14.9415C8.28055 15.0465 7.8754 15.0097 7.52051 14.8382L5.70134 13.9582" stroke="#282723" stroke-opacity="0.5" stroke-width="1.25" stroke-linecap="round" stroke-linejoin="round"/>
<path d="M10.833 13.7498L14.6605 12.574C14.9937 12.4718 15.3507 12.4774 15.6805 12.5901C16.0104 12.7028 16.2962 12.9167 16.4972 13.2015C16.8047 13.6265 16.6797 14.2365 16.2313 14.4948L9.96884 18.109C9.77302 18.2223 9.55618 18.2945 9.33154 18.3213C9.1069 18.3481 8.87915 18.3289 8.66217 18.2648L3.33301 16.6832M10.833 4.1665H12.4997M12.4997 9.99984H10.833C9.26134 9.99984 8.47634 9.99984 7.98801 9.5115C7.49967 9.02317 7.49967 8.23817 7.49967 6.6665V4.99984C7.49967 3.42817 7.49967 2.64317 7.98801 2.15484C8.47634 1.6665 9.26134 1.6665 10.833 1.6665H12.4997C14.0713 1.6665 14.8563 1.6665 15.3447 2.15484C15.833 2.64317 15.833 3.42817 15.833 4.99984V6.6665C15.833 8.23817 15.833 9.02317 15.3447 9.5115C14.8563 9.99984 14.0713 9.99984 12.4997 9.99984Z" stroke="#282723" stroke-opacity="0.5" stroke-width="1.25" stroke-linecap="round" stroke-linejoin="round"/>
</svg>
