<svg width="20" height="20" viewBox="0 0 20 20" fill="none" xmlns="http://www.w3.org/2000/svg">
<path d="M16.25 14.5833C16.25 15.1359 16.0305 15.6658 15.6398 16.0565C15.2491 16.4472 14.7192 16.6667 14.1667 16.6667C13.6141 16.6667 13.0842 16.4472 12.6935 16.0565C12.3028 15.6658 12.0833 15.1359 12.0833 14.5833C12.0833 14.0308 12.3028 13.5009 12.6935 13.1102C13.0842 12.7195 13.6141 12.5 14.1667 12.5C14.7192 12.5 15.2491 12.7195 15.6398 13.1102C16.0305 13.5009 16.25 14.0308 16.25 14.5833ZM7.91667 14.5833C7.91667 15.1359 7.69717 15.6658 7.30647 16.0565C6.91577 16.4472 6.38587 16.6667 5.83333 16.6667C5.2808 16.6667 4.75089 16.4472 4.36019 16.0565C3.96949 15.6658 3.75 15.1359 3.75 14.5833C3.75 14.0308 3.96949 13.5009 4.36019 13.1102C4.75089 12.7195 5.2808 12.5 5.83333 12.5C6.38587 12.5 6.91577 12.7195 7.30647 13.1102C7.69717 13.5009 7.91667 14.0308 7.91667 14.5833Z" stroke="#282723" stroke-width="1.25" stroke-linecap="round" stroke-linejoin="round"/>
<path d="M12.0837 14.5835H7.91699M16.2503 14.5835H16.8862C17.0695 14.5835 17.1612 14.5835 17.2378 14.5735C17.5137 14.5391 17.7702 14.4138 17.9669 14.2173C18.1636 14.0208 18.2891 13.7643 18.3237 13.4885C18.3337 13.411 18.3337 13.3193 18.3337 13.136V10.8335C18.3337 9.39691 17.763 8.01916 16.7472 7.00333C15.7313 5.98751 14.3536 5.41683 12.917 5.41683M1.66699 3.3335H10.0003C11.1787 3.3335 11.7678 3.3335 12.1337 3.70016C12.5003 4.06516 12.5003 4.65433 12.5003 5.8335V12.9168M1.66699 10.6252V12.5002C1.66699 13.2793 1.66699 13.6685 1.83449 13.9585C1.9442 14.1485 2.10198 14.3063 2.29199 14.416C2.58199 14.5835 2.97116 14.5835 3.75033 14.5835M1.66699 5.8335H6.66699M1.66699 8.3335H5.00033" stroke="#282723" stroke-width="1.25" stroke-linecap="round" stroke-linejoin="round"/>
</svg>
