<svg width="479" height="253" viewBox="0 0 479 253" fill="none" xmlns="http://www.w3.org/2000/svg">
<path d="M420.95 38.6046C421.383 44.4422 422.053 49.1821 422.66 53.3712C423.402 58.5651 423.995 62.6943 423.669 66.2494C423.67 66.3627 423.649 66.5127 423.62 66.6889C423.631 66.7053 423.64 66.7218 423.633 66.7479C423.435 68.5028 422.868 73.112 421.403 78.7027C419.346 86.4442 415.501 96.0498 408.492 102.254C395.622 113.648 384.476 119.655 373.428 121.137C360.876 122.833 341.984 121.162 330.151 113.482C318.686 106.031 303.133 94.6328 300.271 81.4332C298.747 74.4013 298.275 69.8366 298.441 66.3559C298.554 64.2003 298.876 62.46 299.362 60.8039C299.598 60.0015 299.844 59.2156 300.124 58.4102C301.992 52.9608 310.272 45.3443 310.362 45.2668L310.433 45.2001C310.456 45.1633 311.514 43.9969 313.662 42.6854C315.744 41.4155 318.826 40.0323 322.965 39.4583C332.256 38.142 342.074 35.9825 350.851 28.9932C357.012 24.0761 361.103 18.2909 364.093 14.0843C365.318 12.3391 366.373 10.833 367.226 9.92608C369.235 7.79279 381.673 -1.92999 392.167 3.59587C395.604 5.39911 398.259 6.59159 400.366 7.5508C404.773 9.53407 406.779 10.442 409.201 13.7048C409.761 14.4734 410.395 15.2884 411.075 16.143C414.897 20.9555 420.13 27.5606 420.95 38.6046ZM412.624 14.9264C411.954 14.0881 411.313 13.2993 410.762 12.5462C408.062 8.86427 405.623 7.76761 401.179 5.76207C399.083 4.81835 396.464 3.65007 393.081 1.85942C382.386 -3.77196 369.332 4.83094 365.801 8.59615C364.852 9.60667 363.804 11.0857 362.494 12.9508C359.566 17.0742 355.578 22.7288 349.633 27.4455C341.224 34.1425 331.713 36.2506 322.704 37.507C313.842 38.743 309.493 43.3242 308.999 43.8527C308.29 44.5118 300.268 51.9949 298.253 57.7608C297.295 60.5 296.663 62.9953 296.492 66.0249C294.358 72.2273 293.885 77.2112 296.653 89.9238C299.653 103.834 315.617 115.57 327.359 123.215C339.622 131.154 359.07 132.917 371.973 131.166C378.813 130.258 385.66 127.689 392.865 123.292C397.741 120.317 402.762 116.503 408.083 111.804C418.268 102.776 422.007 87.0888 423.309 79.1489C424.991 72.7239 425.535 67.561 425.63 66.414C425.954 62.6333 425.354 58.418 424.599 53.0944C424.013 48.9382 423.337 44.2244 422.902 38.4575C422.03 26.8086 416.593 19.9441 412.624 14.9264Z" fill="#282723"/>
<path d="M176.249 163.263C172.849 165.471 160.985 172.473 150.915 169.976C150.899 169.972 150.882 169.968 150.867 169.964C141.035 167.497 136.014 164.338 135.975 164.313C135.148 163.768 133.105 162.602 131.978 163.56C131.511 163.958 130.729 164.624 135.772 175.666C135.8 175.718 138.628 180.975 137.369 186.527C136.573 190.037 134.459 199.359 132.196 201.697C128.901 205.101 116.524 216.562 95.5642 221.13C73.4927 225.94 66.1955 224.189 58.9496 221.401C51.7115 218.616 49.7118 215.582 49.163 214.022C48.9887 213.527 48.7516 212.758 48.4351 211.733C47.5494 208.862 46.0647 204.058 43.6478 197.671C40.3946 189.08 30.2604 164.228 30.152 163.963L12.4042 122.905C8.71062 113.924 3.12957 100.266 2.90889 99.5206C2.88179 99.3251 2.79758 99.0919 2.61077 98.5856C2.5043 98.2962 2.36105 97.909 2.2178 97.4735C2.40945 97.5606 2.83049 97.73 3.53805 97.9052C6.49117 98.6379 14.2616 99.4142 29.5567 94.1254C49.2617 87.3113 51.7657 86.2107 61.7527 81.5105C67.8942 78.6213 72.4076 76.7251 76.0354 75.2026C78.1938 74.2956 80.059 73.5126 81.7335 72.7411C86.1521 70.7076 92.038 67.3363 94.2391 65.2127C94.8469 64.6242 95.5245 64.0812 96.1227 63.6011C96.8428 63.0232 97.5649 62.4347 98.0343 61.8269C98.4215 62.3795 98.9713 63.5004 99.9624 66.3171C100.932 69.0766 102.167 73.4419 103.257 77.2943C104.624 82.1271 105.486 85.1344 105.971 86.0414C106.167 86.4082 106.33 86.8167 106.492 87.2174C106.93 88.3053 107.383 89.4281 108.407 89.854C108.986 90.0911 109.646 90.0611 110.37 89.7533C112.176 88.9887 113.075 86.2166 113.869 83.7697C114.214 82.7059 114.539 81.7012 114.875 81.073L115.087 80.6684C119.558 72.1023 124.836 67.225 130.773 66.1728C140.661 64.4219 145.979 63.9495 152.022 67.1766C158.136 70.4433 163.825 76.0001 164.905 78.2419C166.033 80.5842 167.891 88.5183 168.237 95.6228C168.569 102.454 169.993 107.787 172.047 109.886C173.855 111.732 179.483 118.751 181.718 123.392C183.05 126.158 187.291 135.785 185.948 143.562C184.743 150.543 180.245 160.668 176.249 163.263ZM16.9321 84.7434C35.011 77.4375 40.0664 75.4388 48.2163 72.5727C56.5821 69.6312 71.3264 65.3878 73.0968 64.9136C74.9774 64.4102 87.6001 61.5229 90.4013 61.1551C91.0304 61.0729 91.6964 60.9625 92.3613 60.8522C93.8045 60.6121 96.4653 60.1688 96.8902 60.6208C96.7973 60.9683 95.7839 61.7833 95.1025 62.3292C94.4782 62.8316 93.7687 63.3997 93.1066 64.0386C91.0585 66.0151 85.2548 69.3273 81.0521 71.2602C79.4028 72.021 77.5492 72.7983 75.4043 73.6984C71.763 75.2287 67.2312 77.1317 61.0587 80.0364C51.1385 84.7047 48.65 85.7984 29.0234 92.5855C9.8005 99.2312 2.9089 96.0032 2.84792 95.9713L2.68337 95.9074C2.59917 95.8832 1.87516 95.6364 1.63415 94.5571C1.63996 94.1816 1.69222 93.8409 1.83547 93.5834L2.16069 92.9988L1.89935 92.7771C2.23425 92.1954 4.30173 89.8482 16.9321 84.7434ZM187.554 143.839C188.941 135.811 184.961 126.372 183.186 122.686C180.875 117.886 175.074 110.647 173.212 108.746C171.835 107.34 170.234 103.132 169.864 95.5434C169.509 88.2376 167.559 79.9977 166.373 77.5353C165.144 74.9829 159.383 69.2605 152.791 65.7392C146.3 62.2711 140.754 62.7474 130.489 64.568C124.028 65.714 118.36 70.876 113.642 79.9144L113.438 80.3045C113.033 81.0604 112.686 82.1329 112.318 83.2663C111.7 85.1702 110.855 87.7778 109.736 88.2531C109.428 88.3818 109.191 88.4195 109.032 88.3489C108.639 88.1853 108.301 87.3471 108.004 86.6086C107.824 86.1633 107.638 85.7026 107.409 85.2728C106.983 84.4762 105.886 80.5987 104.826 76.85C103.73 72.9754 102.487 68.5839 101.499 65.776C99.9934 61.492 99.4097 60.7641 98.6286 60.073C98.496 59.9559 98.3605 59.8388 98.2037 59.6355C97.2358 58.3898 94.8528 58.7847 92.0942 59.2444C91.4476 59.3509 90.801 59.4584 90.1883 59.5397C87.3426 59.9133 74.5729 62.8316 72.6748 63.3397C70.8977 63.815 56.0836 68.0787 47.6753 71.0347C39.4934 73.9114 34.4293 75.915 16.3214 83.2334C0.733009 89.5327 0.35261 91.8886 0.22678 92.6629C0.196774 92.8497 0.203552 93.0201 0.235494 93.172C-0.452699 94.9956 0.534575 97.669 1.08145 99.1509C1.18889 99.4393 1.27311 99.6571 1.29537 99.75C1.3728 100.295 6.55892 112.98 10.903 123.537L28.6488 164.594C28.7514 164.844 38.8769 189.676 42.1233 198.249C44.5228 204.588 45.9969 209.361 46.8777 212.214C47.2029 213.266 47.4468 214.055 47.6249 214.563C48.2667 216.388 50.5152 219.901 58.364 222.921C60.0569 223.573 61.7808 224.176 63.7176 224.656C70.0672 226.231 78.6885 226.476 95.9117 222.723C117.317 218.057 129.992 206.317 133.367 202.831C135.641 200.482 137.469 193.454 138.959 186.888C140.358 180.718 137.329 175.116 137.227 174.935C135.434 171.008 133.554 166.351 133.271 164.841C133.705 164.923 134.461 165.269 135.085 165.68C135.296 165.814 140.352 169.006 150.471 171.546C150.488 171.549 150.504 171.554 150.522 171.558C161.23 174.212 173.597 166.929 177.137 164.63C181.539 161.771 186.268 151.295 187.554 143.839Z" fill="#282723"/>
<path d="M173.698 144.48C173.008 145.531 172.473 146.858 171.906 148.262C170.666 151.345 169.257 154.836 165.767 156.467C160.488 158.932 154.396 161.397 148.954 159.445C144.817 157.962 142.045 155.747 140.482 152.675C139.824 151.381 138.462 149.491 137.144 147.663C136.369 146.587 135.568 145.473 134.946 144.532C133.256 141.97 129.512 134.754 127.433 125.772C125.39 116.951 123.254 100.47 123.203 99.6424C123.202 99.5447 123.172 99.2698 123.121 98.8662C122.949 97.4549 122.492 93.7071 122.955 91.6387C123.537 89.0408 125.469 84.7626 125.489 84.719L125.52 84.6377C125.549 84.5516 128.516 75.9661 139.723 76.634C141.228 76.724 142.591 76.9369 143.823 77.2428C151.816 79.2251 154.311 85.0317 154.436 85.3356C154.464 85.3985 157.288 91.8003 157.929 100.517C158.595 109.588 165.268 120.869 165.611 121.43C165.657 121.491 170.36 127.496 171.661 130.772C174.306 137.43 175.048 142.427 173.698 144.48ZM166.952 120.511C166.884 120.397 160.192 109.081 159.554 100.398C158.891 91.3783 156.045 84.9388 155.935 84.6948C155.787 84.3299 152.15 75.7493 139.82 75.0059C127.847 74.2935 124.272 83.3059 123.99 84.0763C123.8 84.4983 121.965 88.6072 121.364 91.2815C120.84 93.6249 121.305 97.4365 121.504 99.0636C121.542 99.3705 121.569 99.5853 121.573 99.6695C121.584 100.342 123.736 117.034 125.845 126.14C127.976 135.347 131.84 142.783 133.585 145.429C134.225 146.399 135.037 147.526 135.823 148.615C137.104 150.393 138.428 152.232 139.029 153.413C140.765 156.826 143.92 159.372 148.404 160.98C148.832 161.134 149.263 161.263 149.695 161.371C155.345 162.771 161.28 160.359 166.457 157.943C170.529 156.042 172.131 152.066 173.418 148.872C173.954 147.545 174.459 146.29 175.06 145.376C177.202 142.119 175.218 135.309 173.175 130.171C171.787 126.676 167.091 120.677 166.952 120.511Z" fill="#282723"/>
<path d="M404.142 177.049C404.026 168.438 407.353 164.566 409.784 161.738L410.383 161.048C411.157 160.526 418.146 156.025 424.829 157.224C428.262 157.837 431.106 159.856 433.285 163.223C441.324 175.674 449.959 190.931 445.357 198.434C443.597 201.32 441.58 203.305 439.099 204.438C435.225 206.205 430.217 205.897 423.28 203.698C412.16 200.183 404.269 186.831 404.142 177.049ZM439.672 205.654C442.338 204.437 444.579 202.296 446.525 199.105C451.485 191.011 443.201 176.053 434.444 162.486C432.057 158.802 428.914 156.588 425.101 155.903C420.756 155.123 416.43 156.48 413.428 157.85C411.308 158.817 409.85 159.791 409.513 160.023L408.744 160.89C406.319 163.715 402.653 167.981 402.775 177.094C402.912 187.326 411.184 201.293 422.835 204.975C430.211 207.314 435.562 207.528 439.672 205.654Z" fill="#282723"/>
<path d="M437.748 124.923C437.823 123.158 442.888 120.242 448.069 117.405C450.918 115.844 453.35 114.511 454.457 113.503L456.974 111.584C468.927 102.461 481.285 93.0256 495.737 88.0243C501.14 85.7526 505.531 86.2376 511.09 86.8483L511.719 86.918C518.301 87.673 524.634 86.0924 532.251 81.7938C533.376 81.2566 534.747 80.4958 536.331 79.6141C543.17 75.8179 553.502 70.0733 557.17 75.0523L557.203 75.0987L557.205 75.1549C557.434 79.2298 543.043 89.5856 536.908 92.8678C532.569 95.1986 527.933 96.2826 523.027 97.4267L522.932 97.448C517.829 98.6424 512.55 99.8785 507.683 102.637C502.566 105.335 498.97 109.665 495.491 113.853C493.59 116.145 491.646 118.488 489.536 120.482C484.725 124.595 478.952 127.816 473.701 130.211C469.513 132.123 465.657 133.51 462.888 134.408C457.138 135.981 454.489 133.853 451.135 131.16C449.487 129.836 447.795 128.476 445.547 127.429C444.02 126.793 442.384 126.42 440.94 126.092C439.714 125.811 438.34 125.498 437.82 125.081L437.745 125.021L437.748 124.923ZM440.593 127.396C441.996 127.714 443.571 128.072 444.964 128.653C447.046 129.624 448.675 130.932 450.251 132.199C453.615 134.903 456.793 137.457 463.26 135.693C465.852 134.848 469.869 133.42 474.232 131.429C480.72 128.469 486.175 125.115 490.445 121.461C492.642 119.389 494.614 117.013 496.521 114.712C499.92 110.618 503.431 106.387 508.326 103.804C513.064 101.128 518.254 99.9143 523.275 98.7412C528.048 97.6242 532.982 96.4714 537.541 94.0429C540.185 92.6268 559.54 80.5578 558.531 74.7154L558.507 74.578L558.43 74.4638C554.185 68.1752 543.055 74.3524 535.692 78.4439L535.53 78.5329C534.024 79.3702 532.722 80.0922 531.634 80.6139C524.246 84.7683 518.158 86.3063 511.902 85.5861L511.276 85.5165C505.734 84.9067 500.959 84.3821 495.265 86.7767C480.634 91.8428 468.179 101.353 456.126 110.549L453.589 112.488C452.558 113.424 450.083 114.781 447.46 116.218C440.403 120.08 435.846 122.799 436.434 125.465L436.514 125.674L436.603 125.795C437.205 126.621 438.626 126.945 440.593 127.396Z" fill="#282723"/>
<path d="M413.685 137.298C416.857 136.266 419.816 135.301 422.296 134.046C426.127 132.175 428.344 128.738 430.49 125.415C431.812 123.366 433.061 121.431 434.654 119.84C437.045 117.486 440.633 115.577 444.101 113.73C445.753 112.853 447.62 111.861 449.257 110.851C452.959 108.629 456.047 105.995 459.316 103.207C461.985 100.932 464.709 98.609 467.787 96.5279C474.905 91.608 482.756 87.7286 490.186 84.1763C495.8 81.5716 499.534 79.9978 504.182 80.0781C505.943 80.0578 507.737 80.263 509.636 80.4798C513.367 80.9057 517.214 81.3442 520.78 79.9291C523.73 78.7211 526.91 77.0543 529.983 75.4408C538.224 71.1152 547.571 66.2097 556.375 67.8262C561.799 69.2829 563.79 75.4398 565.545 80.8718L565.565 80.9318C565.949 82.1156 566.311 83.2355 566.698 84.277C569.874 93.7403 574.945 105.532 578.564 113.024C580.439 117.209 582.598 120.698 584.687 124.071L584.713 124.113C587.44 128.51 590.257 133.054 592.486 139.212C593.584 142.423 594.377 145.873 595.143 149.209C595.872 152.372 596.623 155.643 597.648 158.74C603.247 173.691 582.507 187.538 576.016 191.424C563.7 198.921 552.248 205.088 541.609 209.943C519.989 219.807 501.712 224.262 486.261 223.488C481.547 222.873 479.259 221.605 476.189 219.168C470.339 213.585 462.976 212.942 453.664 217.191C453.15 217.425 452.652 217.663 452.17 217.901C444.083 221.473 437.169 223.521 431.025 224.165C417.391 226.137 407.55 219.729 401.696 214.006C390.27 202.838 383.849 184.344 386.081 169.03L386.134 168.795C388.336 160.838 392.736 152.193 397.902 145.662C401.392 141.289 407.642 139.26 413.685 137.298ZM384.809 168.495L384.74 168.811C382.446 184.537 389.017 203.524 400.723 214.968C409.426 223.478 419.954 227.118 431.169 225.494C437.442 224.837 444.494 222.748 452.736 219.11C453.2 218.882 453.657 218.663 454.108 218.458C463.147 214.333 469.718 214.882 475.271 220.179C478.492 222.738 481.059 224.165 486.107 224.822C501.918 225.614 520.28 221.131 542.227 211.117C552.829 206.281 564.431 200.037 576.714 192.562C585.327 187.405 604.73 173.739 598.94 158.278C597.947 155.279 597.201 152.04 596.479 148.905C595.702 145.524 594.904 142.047 593.778 138.752C591.501 132.46 588.647 127.855 585.886 123.399C583.806 120.043 581.661 116.581 579.808 112.444C576.208 104.994 571.157 93.2544 567.993 83.8269C567.6 82.768 567.241 81.6549 566.86 80.4769C564.989 74.6907 562.882 68.1765 556.71 66.5214C547.384 64.8043 537.81 69.8278 529.361 74.2609C526.326 75.8522 523.19 77.4986 520.284 78.6901C517.056 79.9707 513.555 79.5738 509.847 79.1508C507.976 78.936 506.063 78.7162 504.217 78.7404C499.368 78.6504 495.454 80.2659 489.616 82.9703C482.129 86.5516 474.214 90.4639 467.023 95.4313C463.871 97.5636 461.109 99.9205 458.436 102.201C455.203 104.957 452.16 107.552 448.554 109.715C446.989 110.681 445.226 111.62 443.521 112.53L443.476 112.553C439.919 114.444 436.241 116.399 433.695 118.91C432.001 120.596 430.657 122.675 429.358 124.686C427.204 128.022 425.186 131.149 421.698 132.851C419.306 134.074 416.377 135.021 413.281 136.025C407.032 138.055 400.581 140.146 396.831 144.85C391.557 151.518 387.063 160.358 384.809 168.495Z" fill="#282723"/>
<path d="M277.759 230.562L269.095 230.556L260.223 230.068C252.119 229.624 237.084 225.687 223.994 220.712C222.124 220.001 220.294 219.269 218.529 218.523C217.692 218.171 216.89 217.817 216.11 217.463C215.72 217.286 215.353 217.11 214.978 216.934C214.605 216.76 214.227 216.584 213.868 216.409C213.442 216.202 213.034 215.996 212.626 215.79C212.348 215.65 212.069 215.51 211.8 215.371C211.372 215.148 210.956 214.927 210.55 214.708C210.335 214.591 210.12 214.474 209.911 214.359C209.486 214.124 209.07 213.891 208.67 213.66C208.514 213.57 208.363 213.482 208.211 213.393C207.784 213.143 207.363 212.895 206.966 212.651C206.886 212.602 206.812 212.555 206.734 212.508C202.813 210.088 200.32 208.028 199.068 206.894C199.068 206.894 199.068 206.894 199.067 206.893C198.751 206.605 198.513 206.378 198.35 206.218C198.398 205.716 198.208 205.208 197.812 204.85C196.068 203.318 187.349 195.355 186.983 189.052C186.495 180.837 187.987 173.033 188.454 170.839C189.202 167.377 194.647 152.889 197.277 147.033C199.823 141.365 206.201 124.258 208.318 117.919C209.555 114.197 210.71 109.547 211.636 105.811C211.811 105.106 211.979 104.43 212.137 103.804C212.154 103.843 212.178 103.885 212.196 103.923C212.243 104.023 212.294 104.125 212.346 104.226C212.403 104.337 212.464 104.451 212.53 104.565C212.589 104.669 212.655 104.776 212.722 104.883C212.796 105.001 212.875 105.122 212.959 105.243C213.034 105.353 213.114 105.463 213.197 105.575C213.29 105.7 213.388 105.826 213.491 105.954C213.583 106.068 213.679 106.182 213.78 106.299C213.893 106.43 214.014 106.564 214.139 106.697C214.249 106.815 214.362 106.933 214.481 107.053C214.617 107.191 214.762 107.33 214.91 107.47C215.04 107.592 215.171 107.714 215.31 107.837C215.471 107.981 215.643 108.126 215.817 108.271C215.966 108.396 216.116 108.52 216.276 108.647C216.464 108.796 216.665 108.947 216.868 109.099C217.04 109.225 217.208 109.352 217.389 109.481C217.608 109.637 217.842 109.794 218.076 109.951C218.269 110.08 218.457 110.208 218.66 110.338C218.911 110.499 219.181 110.662 219.449 110.825C219.664 110.955 219.873 111.085 220.098 111.217C220.385 111.383 220.693 111.551 220.998 111.72C221.235 111.851 221.465 111.981 221.714 112.113C222.041 112.287 222.392 112.462 222.741 112.637C222.998 112.767 223.246 112.896 223.514 113.027C223.892 113.209 224.297 113.394 224.697 113.579C224.969 113.704 225.228 113.828 225.512 113.955C225.949 114.149 226.418 114.346 226.883 114.542C227.162 114.66 227.427 114.777 227.718 114.897C228.247 115.113 228.813 115.332 229.377 115.551C229.634 115.651 229.873 115.749 230.138 115.849C230.983 116.168 231.863 116.489 232.784 116.81C240.863 119.637 247.674 123.307 254.26 126.855C255.301 127.416 256.334 127.972 257.364 128.522C257.366 128.523 257.368 128.524 257.37 128.525C258.384 129.065 259.394 129.597 260.406 130.119C260.428 130.131 260.451 130.143 260.474 130.155C261.467 130.667 262.462 131.166 263.46 131.653C263.504 131.674 263.546 131.696 263.589 131.717C264.571 132.194 265.56 132.657 266.555 133.103C266.598 133.123 266.642 133.145 266.685 133.164C266.712 133.177 266.739 133.187 266.766 133.199C267.084 133.341 267.407 133.48 267.728 133.618C267.949 133.714 268.169 133.812 268.392 133.906C268.709 134.04 269.032 134.169 269.352 134.299C269.58 134.392 269.806 134.487 270.035 134.578C270.353 134.703 270.673 134.823 270.994 134.945C271.229 135.034 271.463 135.127 271.7 135.214C272.019 135.331 272.34 135.442 272.66 135.553C272.903 135.639 273.144 135.727 273.388 135.809C273.715 135.92 274.047 136.023 274.378 136.129C274.619 136.206 274.859 136.288 275.102 136.362C275.444 136.467 275.792 136.564 276.137 136.663C276.375 136.732 276.61 136.804 276.849 136.869C277.226 136.973 277.61 137.068 277.993 137.165C278.206 137.218 278.414 137.276 278.628 137.328C279.227 137.471 279.832 137.608 280.443 137.734C297.064 141.174 304.385 142.286 309.455 142.145C309.895 142.133 310.337 142.118 310.777 142.102C310.885 142.098 310.992 142.093 311.1 142.088C311.535 142.07 311.968 142.05 312.396 142.023C312.412 142.022 312.428 142.021 312.444 142.02C312.884 141.992 313.318 141.958 313.746 141.919C313.845 141.909 313.942 141.9 314.04 141.89C314.421 141.853 314.795 141.811 315.161 141.763C315.212 141.756 315.265 141.751 315.317 141.744C315.715 141.689 316.102 141.626 316.478 141.555C316.569 141.539 316.659 141.52 316.749 141.502C317.067 141.438 317.374 141.368 317.669 141.292C317.732 141.276 317.797 141.262 317.858 141.244C318.193 141.152 318.511 141.05 318.812 140.938C318.883 140.911 318.951 140.882 319.021 140.854C319.267 140.757 319.498 140.651 319.714 140.537C319.753 140.516 319.801 140.501 319.839 140.48C319.592 142.191 319.116 143.352 315.706 151.089C310.925 161.955 309.197 172.852 309.2 172.868C309.164 172.99 305.592 185.094 302.849 191.901C297.893 204.191 294.885 213.423 293.909 219.339C292.732 226.472 286.846 230.563 277.759 230.562ZM257.527 250.716C252.271 251.664 237.747 252.774 216.377 242.893C193.813 232.439 193.604 217.028 194.37 215.205C195.103 213.479 196.827 209.725 197.777 207.673C197.905 207.794 198.05 207.927 198.212 208.074C198.247 208.104 198.289 208.142 198.326 208.175C198.472 208.306 198.627 208.443 198.8 208.591C198.872 208.653 198.952 208.721 199.029 208.786C199.184 208.918 199.343 209.052 199.517 209.194C199.611 209.272 199.71 209.351 199.81 209.432C199.989 209.577 200.178 209.727 200.376 209.882C200.483 209.966 200.592 210.05 200.705 210.137C200.924 210.306 201.155 210.479 201.394 210.657C201.507 210.74 201.614 210.82 201.73 210.907C202.024 211.122 202.337 211.343 202.661 211.571C202.739 211.625 202.808 211.676 202.888 211.731C203.304 212.021 203.743 212.318 204.209 212.624C204.263 212.66 204.324 212.697 204.379 212.733C204.784 212.997 205.205 213.265 205.645 213.54C205.792 213.631 205.946 213.724 206.097 213.817C206.465 214.042 206.842 214.269 207.235 214.501C207.421 214.61 207.611 214.719 207.803 214.83C208.186 215.051 208.58 215.274 208.987 215.499C209.197 215.616 209.406 215.731 209.622 215.848C210.048 216.08 210.492 216.314 210.943 216.549C211.152 216.658 211.355 216.765 211.57 216.876C212.128 217.16 212.707 217.447 213.302 217.735C213.424 217.794 213.537 217.852 213.661 217.912C214.387 218.26 215.139 218.608 215.917 218.957C215.95 218.971 215.979 218.987 216.012 219.001C216.646 219.285 217.298 219.569 217.968 219.851C232.217 225.873 250.743 230.993 260.144 231.507L267.981 231.94C266.991 234.329 264.519 240.597 264.301 244.14C264.073 247.789 261.857 249.94 257.527 250.716ZM217.778 96.3086L217.899 96.234C217.97 96.1818 225.224 91.1128 251.723 98.5542C278.088 105.958 303.09 117.55 310.294 122.73C317.053 127.589 320.85 133.312 320.204 137.672L320.115 138.281C320.098 138.324 320.074 138.366 320.052 138.408C320.03 138.451 320.009 138.493 319.982 138.535C319.951 138.581 319.911 138.623 319.874 138.668C319.841 138.706 319.811 138.746 319.772 138.785C319.728 138.828 319.674 138.87 319.624 138.913C319.58 138.948 319.54 138.984 319.491 139.019C319.433 139.061 319.366 139.101 319.301 139.141C319.247 139.174 319.198 139.208 319.14 139.24C319.067 139.279 318.985 139.317 318.905 139.355C318.843 139.385 318.784 139.416 318.717 139.444C318.63 139.482 318.533 139.518 318.438 139.553C318.367 139.58 318.3 139.609 318.223 139.635C318.12 139.67 318.007 139.704 317.895 139.738C317.817 139.761 317.743 139.787 317.66 139.81C317.54 139.844 317.408 139.875 317.28 139.907C317.194 139.928 317.114 139.949 317.026 139.97C316.889 140.002 316.741 140.03 316.594 140.06C316.502 140.078 316.415 140.097 316.32 140.115C316.167 140.143 316.002 140.17 315.838 140.196C315.74 140.213 315.647 140.229 315.544 140.244C315.37 140.271 315.184 140.295 315 140.319C314.9 140.332 314.804 140.346 314.699 140.36C314.507 140.383 314.301 140.403 314.097 140.425C313.992 140.436 313.891 140.449 313.783 140.458C313.556 140.481 313.318 140.499 313.08 140.518C312.985 140.526 312.896 140.536 312.799 140.543C312.541 140.562 312.27 140.578 311.998 140.595C311.911 140.601 311.829 140.606 311.741 140.611C311.456 140.628 311.158 140.641 310.857 140.654C310.775 140.658 310.697 140.662 310.614 140.666C310.226 140.68 309.828 140.694 309.417 140.703C304.471 140.842 297.234 139.735 280.735 136.322C271.224 134.357 263.316 130.097 254.945 125.586C253.977 125.065 253.002 124.541 252.021 124.017C251.759 123.877 251.496 123.739 251.233 123.598C250.437 123.176 249.633 122.755 248.823 122.335C248.534 122.185 248.246 122.036 247.954 121.886C245.859 120.812 243.706 119.759 241.469 118.751C241.355 118.7 241.247 118.645 241.133 118.594C240.954 118.514 240.764 118.44 240.583 118.361C239.713 117.976 238.828 117.602 237.928 117.234C237.592 117.096 237.258 116.958 236.917 116.823C235.723 116.349 234.512 115.888 233.259 115.45C226.021 112.921 221.314 110.52 218.279 108.384C215.244 106.249 213.881 104.38 213.331 102.917C212.702 101.245 213.183 100.154 213.355 99.8454C214.562 97.8902 217.746 96.3241 217.778 96.3086ZM304.186 192.439C306.955 185.568 310.547 173.398 310.604 173.182C310.62 173.075 312.324 162.356 317.025 151.67C321.059 142.514 321.078 142.359 321.381 139.769C321.421 139.428 321.466 139.041 321.528 138.582C321.599 138.353 321.633 138.115 321.63 137.872C321.638 137.821 321.637 137.768 321.644 137.715L321.683 136.659C321.7 136.204 321.666 135.75 321.582 135.303L321.434 134.522C320.447 130.321 316.771 125.612 311.136 121.56C303.848 116.317 278.635 104.613 252.112 97.1662C225.771 89.7693 217.933 94.454 217.091 95.0416C216.62 95.2768 213.652 96.8293 212.242 98.9384L212.227 98.9287C212.227 98.9287 212.186 98.9878 212.121 99.1001C212.121 99.102 212.119 99.103 212.118 99.1049C212.114 99.1117 212.112 99.1136 212.108 99.1214C212.107 99.1223 212.106 99.1223 212.106 99.1233C212.101 99.132 212.095 99.1475 212.09 99.1562C211.903 99.4659 211.761 99.765 211.665 100.06C211.322 101.09 210.844 103.021 210.237 105.463C209.317 109.175 208.17 113.795 206.951 117.463C204.892 123.624 198.443 140.92 195.962 146.443C193.476 151.979 187.875 166.694 187.045 170.537C186.567 172.776 185.045 180.74 185.544 189.136C185.933 195.843 194.316 203.698 196.86 205.932C196.921 205.986 196.937 206.061 196.903 206.135C196.177 207.687 193.918 212.583 193.042 214.644C191.626 218.017 193.71 233.98 215.771 244.201C216.258 244.427 216.739 244.645 217.218 244.86C238.165 254.227 252.512 253.086 257.782 252.135C262.791 251.237 265.469 248.577 265.74 244.229C265.959 240.667 268.771 233.78 269.521 231.998L277.758 232.003L277.759 232.002C287.478 232.004 294.048 227.357 295.331 219.574C296.29 213.762 299.269 204.633 304.186 192.439Z" fill="#282723"/>
</svg>
