<svg width="24" height="24" viewBox="0 0 24 24" fill="none" xmlns="http://www.w3.org/2000/svg">
<path d="M21.3347 2.59712C21.2443 2.519 21.1342 2.46706 21.0164 2.4469C20.8986 2.42674 20.7775 2.43914 20.6663 2.48275L1.66688 9.91806C1.43579 10.0085 1.24027 10.1714 1.10969 10.3825C0.97911 10.5935 0.920514 10.8412 0.942705 11.0883C0.964895 11.3355 1.06667 11.5688 1.23275 11.7532C1.39884 11.9375 1.62025 12.0631 1.86376 12.1109L6.93751 13.1074V18.7502C6.93761 19.0118 7.01589 19.2675 7.16229 19.4842C7.30869 19.701 7.51654 19.8691 7.75916 19.967C8.00178 20.0648 8.2681 20.0879 8.52394 20.0333C8.77978 19.9787 9.01346 19.8489 9.19501 19.6606L11.6925 17.0702L15.5906 20.4874C15.8286 20.698 16.1354 20.8144 16.4531 20.8146C16.5919 20.8143 16.7298 20.7925 16.8619 20.7499C17.0784 20.6814 17.2732 20.5573 17.4269 20.39C17.5805 20.2227 17.6876 20.0181 17.7375 19.7965L21.5456 3.24118C21.5724 3.1248 21.5669 3.00331 21.5297 2.88982C21.4926 2.77632 21.4251 2.67512 21.3347 2.59712ZM2.0672 11.0037C2.0636 10.994 2.0636 10.9834 2.0672 10.9737C2.07142 10.9704 2.07618 10.9679 2.08126 10.9662L17.0541 5.10493L7.3697 12.0424L2.08126 11.0074L2.0672 11.0037ZM8.38501 18.8787C8.35917 18.9055 8.32593 18.924 8.28953 18.9319C8.25313 18.9397 8.21522 18.9365 8.18063 18.9228C8.14603 18.909 8.11633 18.8852 8.09529 18.8545C8.07425 18.8238 8.06284 18.7875 8.06251 18.7502V13.8856L10.8459 16.3231L8.38501 18.8787ZM16.6416 19.5424C16.6347 19.5741 16.6193 19.6034 16.5972 19.6271C16.5751 19.6509 16.5471 19.6683 16.5159 19.6774C16.4842 19.6886 16.45 19.691 16.4171 19.6844C16.3841 19.6778 16.3535 19.6624 16.3284 19.6399L8.40376 12.6884L20.1563 4.26587L16.6416 19.5424Z" fill="#282723"/>
</svg>
