<svg width="87" height="40" viewBox="0 0 87 40" fill="none" xmlns="http://www.w3.org/2000/svg">
<g clip-path="url(#clip0_8_1235)">
<mask id="mask0_8_1235" style="mask-type:luminance" maskUnits="userSpaceOnUse" x="0" y="-1" width="87" height="41">
<path d="M0.423096 -0.109192H86.5768V39.8911H0.423096V-0.109192Z" fill="white"/>
</mask>
<g mask="url(#mask0_8_1235)">
<path d="M6.42159 25.9675C5.53715 25.9675 4.7796 25.8467 4.14819 25.6043C3.51677 25.3627 2.86408 25.0101 2.19087 24.5474C1.43333 23.916 1.05493 23.1683 1.05493 22.3059C1.05493 22.1167 1.07545 21.9268 1.118 21.7376L1.40217 20.4117C1.46524 20.2848 1.54882 20.2217 1.65443 20.2217C1.73802 20.2217 1.81248 20.2749 1.87554 20.3798C2.25394 21.9587 2.82229 23.1318 3.57983 23.8993C4.33814 24.6682 5.29552 25.1788 6.4535 25.4311C6.70576 25.4941 6.97854 25.5261 7.27411 25.5261C7.75812 25.5261 8.24213 25.4364 8.72614 25.2571C9.21015 25.0785 9.60982 24.7943 9.92591 24.4046C10.2412 24.0163 10.3993 23.5057 10.3993 22.8743V22.7162C10.3362 22.0635 10.0467 21.4952 9.5308 21.0112C9.01563 20.5272 8.38422 20.0857 7.63731 19.6845C6.88964 19.2856 6.14197 18.87 5.39506 18.4384C4.64815 18.0068 4.02205 17.5175 3.51677 16.9697C3.01224 16.4226 2.75922 15.76 2.75922 14.9812L2.79114 14.602C2.81165 14.3293 2.91727 13.9919 3.10646 13.5922C3.29566 13.1933 3.63758 12.84 4.13223 12.5345C4.62688 12.2299 5.33731 12.0771 6.26354 12.0771H6.6427C7.56816 12.1402 8.26265 12.3613 8.72614 12.7397C9.29449 13.1819 9.57866 13.7184 9.57866 14.3498V15.9918C9.57866 16.0753 9.52548 16.1179 9.42062 16.1179C9.35756 16.1179 9.315 16.086 9.29449 16.0229C9.14708 15.3079 8.86291 14.5922 8.44196 13.8764C8.02026 13.1614 7.42076 12.6873 6.6427 12.4555C6.4535 12.4137 6.24227 12.3925 6.01128 12.3925C5.48472 12.3925 4.96424 12.5186 4.44832 12.7716C3.93239 13.0239 3.67481 13.4456 3.67481 14.0344C3.67481 14.1606 3.69533 14.2981 3.73788 14.4447C3.86401 14.9705 4.21657 15.4439 4.79556 15.8649C5.37455 16.2866 6.06295 16.6969 6.8638 17.0965C7.66314 17.497 8.44728 17.9384 9.21547 18.4224C9.98365 18.9065 10.631 19.4642 11.1568 20.0956C11.6826 20.7278 11.9463 21.5058 11.9463 22.432V22.5582C11.7989 23.8628 11.1097 24.7632 9.87804 25.2571C8.64712 25.7525 7.49522 25.988 6.42159 25.9675Z" fill="white"/>
<path d="M19.8383 25.652C20.5533 25.652 21.2638 25.4255 21.9697 24.9727C22.674 24.5206 23.2636 23.8048 23.737 22.8262C24.2111 21.8475 24.4475 20.5794 24.4475 19.0217C24.4475 17.4436 24.2111 16.1655 23.737 15.1869C23.2636 14.2075 22.674 13.4925 21.9697 13.0388C21.2638 12.5875 20.5533 12.3611 19.8383 12.3611C19.1226 12.3611 18.4129 12.5875 17.7078 13.0388C17.0019 13.4925 16.4131 14.2075 15.9397 15.1869C15.4663 16.1655 15.2292 17.4436 15.2292 19.0217C15.2292 20.5794 15.4663 21.8475 15.9397 22.8262C16.4131 23.8048 17.0019 24.5206 17.7078 24.9727C18.4129 25.4255 19.1226 25.652 19.8383 25.652ZM19.8383 25.9673C17.9441 25.9673 16.3659 25.383 15.1031 24.2151C13.8403 23.0473 13.2089 21.3164 13.2089 19.0217C13.2089 16.7286 13.8403 14.9924 15.1031 13.8131C16.3659 12.6346 17.9441 12.045 19.8383 12.045C21.7326 12.045 23.3115 12.6346 24.5736 13.8131C25.8372 14.9924 26.4686 16.7286 26.4686 19.0217C26.4686 21.3164 25.8372 23.0473 24.5736 24.2151C23.3115 25.383 21.7326 25.9673 19.8383 25.9673Z" fill="white"/>
<path d="M44.1476 25.7788H39.0021C38.8965 25.7788 38.8228 25.7051 38.781 25.5577V25.4946C38.781 25.389 38.8539 25.326 39.0021 25.3054C39.6966 25.1793 40.1426 24.9058 40.3432 24.4848C40.5438 24.0639 40.6441 23.7584 40.6441 23.5692V18.9275C40.622 17.3918 40.3804 16.1495 39.9177 15.2028C39.4542 14.2553 38.8706 13.5608 38.1655 13.1193C37.4596 12.6771 36.7499 12.456 36.0342 12.456C35.3815 12.456 34.7242 12.646 34.0617 13.0244C33.3984 13.4035 32.8346 14.003 32.3718 14.8236C31.9091 15.645 31.6143 16.708 31.4881 18.0126V23.5692C31.4881 23.7584 31.5877 24.0639 31.7875 24.4848C31.9874 24.9058 32.4349 25.1793 33.1294 25.3054C33.2563 25.3054 33.33 25.3685 33.3505 25.4946V25.5577C33.3505 25.6838 33.2669 25.7583 33.0982 25.7788H27.9838C27.8364 25.7788 27.7521 25.6838 27.7316 25.4946C27.7946 25.3685 27.8676 25.3054 27.9527 25.3054C28.6472 25.1793 29.0985 24.9058 29.3097 24.4848C29.5194 24.0639 29.6258 23.7584 29.6258 23.5692V15.455C29.6258 15.0341 29.4047 14.813 28.9625 14.7925C28.8569 14.7925 28.7513 14.813 28.6472 14.8555H28.6152C28.5309 14.8555 28.4671 14.813 28.426 14.7294L28.3949 14.6344C28.3949 14.5714 28.426 14.5189 28.4891 14.4764L30.8886 12.3299C30.9517 12.2668 31.0247 12.2349 31.109 12.2349C31.299 12.2349 31.4251 12.3512 31.4881 12.5821V14.2553C31.4881 14.4658 31.6143 14.5828 31.8673 14.6025C31.9934 14.6025 32.0983 14.5395 32.1826 14.4133C33.0663 13.0038 34.3611 12.225 36.0653 12.0776L36.6025 12.0457C38.3068 12.0457 39.7171 12.6665 40.8333 13.908C41.9479 15.1504 42.5064 16.8554 42.5064 19.0224V23.5692C42.5064 23.7584 42.6112 24.0639 42.8217 24.4848C43.0314 24.9058 43.485 25.1793 44.1795 25.3054C44.2844 25.3054 44.3475 25.3685 44.3687 25.4946V25.5577C44.3687 25.6838 44.2943 25.7583 44.1476 25.7788Z" fill="white"/>
<path d="M52.4501 25.5893L52.9865 25.5574C54.1232 25.3887 55.0433 24.8895 55.7492 24.0575C56.4543 23.227 56.8061 22.2635 56.8061 21.1694V18.0123C56.68 16.7077 56.386 15.6394 55.9225 14.8081C55.4597 13.9769 54.8967 13.3713 54.2341 12.9929C53.5708 12.6137 52.9128 12.4245 52.2609 12.4245C51.5664 12.4245 50.8605 12.651 50.1455 13.1031C49.429 13.5559 48.8348 14.2663 48.3614 15.2336C47.8881 16.2024 47.6518 17.4652 47.6518 19.0221C47.6518 20.5797 47.8881 21.8327 48.3614 22.7794C48.8348 23.7262 49.4244 24.4207 50.1295 24.8629C50.8347 25.3051 51.5451 25.5467 52.2609 25.5893H52.4501ZM52.2609 25.9365C50.3871 25.9365 48.8143 25.3522 47.5408 24.1836C46.2674 23.0158 45.6306 21.2955 45.6306 19.0221C45.6306 16.8551 46.2202 15.1447 47.3995 13.8918C48.5772 12.6403 50.0399 12.0142 51.7875 12.0142L52.2609 12.0454C53.9446 12.1928 55.2386 12.9822 56.1436 14.413C56.2279 14.5186 56.3229 14.571 56.4277 14.571C56.6169 14.571 56.7431 14.4555 56.8061 14.2238L56.8381 7.65662C56.8381 7.25771 56.6169 7.0366 56.1755 6.99405L55.7963 7.05712C55.7333 7.05712 55.6808 7.0252 55.6383 6.96214L55.6071 6.83601C55.6071 6.77294 55.6284 6.73115 55.6702 6.70988L58.1009 4.56336C58.1852 4.5003 58.2696 4.46839 58.3539 4.46839C58.5218 4.46839 58.6381 4.58388 58.7011 4.81563V22.6845C58.7847 23.0636 58.9853 23.2528 59.3014 23.2528C59.4055 23.2528 59.5218 23.2315 59.6487 23.1898H59.7117C59.7748 23.1898 59.8265 23.2315 59.869 23.3159L59.9009 23.4109C59.9009 23.4739 59.8789 23.5264 59.8378 23.5689L57.5644 25.5893C57.4588 25.7154 57.3221 25.7785 57.1534 25.7785L57.0592 25.7466C56.9118 25.6417 56.8381 25.5156 56.8381 25.3682V25.2101C56.775 24.8112 56.6276 24.6106 56.3958 24.6106H56.3328C56.1854 24.6106 56.0387 24.6532 55.8913 24.7368C55.7439 24.8211 55.5965 24.9054 55.4491 24.989C54.6285 25.6204 53.5655 25.9365 52.2609 25.9365Z" fill="white"/>
<path d="M63.7206 22.0846V21.9896C63.7206 21.8429 63.7731 21.5633 63.8787 21.153C63.9843 20.7427 64.2464 20.3165 64.6681 19.875C65.0891 19.4328 65.7517 19.0544 66.6566 18.7383C67.772 18.4017 68.7932 17.9701 69.7195 17.4443C70.6449 16.9178 71.1609 16.2552 71.2665 15.4543L71.2976 15.1071C71.2976 14.3921 71.0925 13.8344 70.6822 13.4339C70.2719 13.035 69.803 12.7607 69.2765 12.6133C68.7507 12.4667 68.288 12.3922 67.8875 12.3922H67.7933C67.0775 12.4135 66.3724 12.6506 65.6779 13.1034C64.9835 13.5555 64.3999 14.2606 63.9265 15.218C63.4524 16.1762 63.2153 17.4443 63.2153 19.0225C63.2153 19.1068 63.2419 19.47 63.2944 20.1113C63.3468 20.7534 63.4889 21.4114 63.7206 22.0846ZM67.7933 25.9673C65.9203 25.9673 64.3467 25.3837 63.0733 24.2159C61.8006 23.048 61.1638 21.3164 61.1638 19.0225C61.1638 16.7286 61.8006 14.9969 63.0733 13.8291C64.3467 12.6612 65.9203 12.0769 67.7933 12.0769C68.677 12.0769 69.6716 12.2821 70.7764 12.6924C71.8819 13.1034 72.6235 13.8131 73.0027 14.8229C73.0445 14.9711 73.0657 15.1071 73.0657 15.2332C73.0657 15.8016 72.7443 16.3182 72.1023 16.781C71.461 17.2437 70.6761 17.6601 69.7514 18.0279C68.8244 18.3964 67.8982 18.7277 66.9727 19.0225C66.1513 19.296 65.5366 19.7435 65.1263 20.3636C64.7152 20.9851 64.5101 21.6538 64.5101 22.3687C64.5101 23.1688 64.7791 23.8998 65.3155 24.5631C65.8519 25.2257 66.6353 25.5889 67.6672 25.652H67.7933C68.446 25.652 69.0926 25.4681 69.7347 25.0996C70.3767 24.731 70.9291 24.1581 71.3926 23.3786C71.5605 23.1476 71.7604 23.0313 71.9921 23.0313C72.16 23.0313 72.3181 23.0951 72.4662 23.2213C72.6334 23.39 72.7185 23.5685 72.7185 23.7577C72.7185 23.9469 72.644 24.1163 72.4974 24.263C71.2346 25.3989 69.6663 25.9673 67.7933 25.9673Z" fill="white"/>
<path d="M79.6948 25.7788H74.5492C74.4231 25.7788 74.3486 25.7051 74.3281 25.5577V25.4946C74.3281 25.389 74.3912 25.326 74.5173 25.3054C75.2323 25.1793 75.6951 24.9058 75.9063 24.4848C76.116 24.0639 76.211 23.7584 76.1905 23.5692V15.455C76.1905 15.0341 75.9792 14.813 75.559 14.7925L75.1807 14.8555C75.0955 14.8555 75.0325 14.813 74.9907 14.7294L74.9595 14.6344C74.9595 14.5714 74.9907 14.5189 75.0545 14.4764L77.4533 12.3299C77.5369 12.2668 77.6113 12.2349 77.6744 12.2349C77.8636 12.2349 77.9897 12.3618 78.0528 12.6141V14.2553C78.0528 14.4452 78.1683 14.5509 78.4 14.5714C78.5057 14.5714 78.59 14.5189 78.6531 14.4133C79.3475 12.9826 80.4523 12.2037 81.9674 12.0776L82.5046 12.0457C83.8936 12.0457 84.9771 12.4773 85.7567 13.3404C85.8828 13.4871 85.9459 13.6451 85.9459 13.8138C85.9459 14.0243 85.8509 14.2036 85.6617 14.3503C85.5356 14.4559 85.3775 14.5083 85.1876 14.5083C84.9353 14.5083 84.7248 14.3928 84.5561 14.1611C83.9247 13.0456 83.0623 12.4773 81.9674 12.456H81.8732C81.0518 12.456 80.2677 12.8929 79.5208 13.766C78.7739 14.6398 78.2845 15.9717 78.0528 17.7596V23.5692C78.0528 23.7584 78.1584 24.0639 78.3689 24.4848C78.5786 24.9058 79.0208 25.1793 79.6948 25.3054C79.8209 25.3054 79.8946 25.3685 79.9159 25.4946V25.5577C79.9159 25.6838 79.8414 25.7583 79.6948 25.7788Z" fill="white"/>
</g>
</g>
<defs>
<clipPath id="clip0_8_1235">
<rect width="86.1537" height="40" fill="white" transform="translate(0.423096)"/>
</clipPath>
</defs>
</svg>
