<svg width="48" height="48" viewBox="0 0 48 48" fill="none" xmlns="http://www.w3.org/2000/svg">
<path d="M36.7082 24.7083L26.7082 34.7083C26.5204 34.8961 26.2657 35.0015 26.0002 35.0015C25.7346 35.0015 25.4799 34.8961 25.2922 34.7083C25.1044 34.5205 24.9989 34.2658 24.9989 34.0003C24.9989 33.7347 25.1044 33.4801 25.2922 33.2923L33.5862 25.0003L12.0002 25.0003C11.7349 25.0003 11.4806 24.8949 11.2931 24.7074C11.1055 24.5199 11.0002 24.2655 11.0002 24.0003C11.0002 23.7351 11.1055 23.4807 11.2931 23.2932C11.4806 23.1056 11.7349 23.0003 12.0002 23.0003L33.5862 23.0003L25.2922 14.7083C25.1044 14.5205 24.9989 14.2658 24.9989 14.0003C24.9989 13.7347 25.1044 13.4801 25.2922 13.2923C25.4799 13.1045 25.7346 12.999 26.0002 12.999C26.2657 12.999 26.5204 13.1045 26.7082 13.2923L36.7082 23.2923C36.8013 23.3852 36.8752 23.4955 36.9256 23.617C36.976 23.7385 37.002 23.8688 37.002 24.0003C37.002 24.1318 36.976 24.2621 36.9256 24.3836C36.8752 24.505 36.8013 24.6154 36.7082 24.7083Z" fill="#282723"/>
</svg>
